<?xml version="1.0" encoding="UTF-8"?>
<svg width="500px" height="500px" viewBox="0 0 500 500" xmlns="http://www.w3.org/2000/svg" xmlns:xlink="http://www.w3.org/1999/xlink" version="1.1">
 <!-- Generated by Pixelmator Pro 2.0 -->
 <path id="Rectangle" d="M0 500 L500 500 500 0 0 0 Z" fill="#ffffff" fill-opacity="1" stroke="none"/>
 <defs>
  <text id="string" transform="matrix(1.0 0.0 0.0 1.0 -4.0 200.0)" fill="#000000" font-family="Charter-Black, Charter" text-decoration="none" x="22.013671875" font-size="82" y="80.0">DevOps'ish</text>
 </defs>
 <use id="DevOpsish" xlink:href="#string"/>
 <path id="" d="M320.357 153.333 L423.214 153.333 423.214 140.476 320.357 140.476 Z M320.357 101.905 L423.214 101.905 423.214 89.048 320.357 89.048 Z M475.044 153.735 C476.919 151.86 477.857 149.583 477.857 146.905 477.857 144.226 476.919 141.949 475.044 140.075 473.17 138.2 470.893 137.262 468.214 137.262 465.535 137.262 463.259 138.2 461.384 140.075 459.509 141.949 458.571 144.226 458.571 146.905 458.571 149.583 459.509 151.86 461.384 153.735 463.259 155.61 465.535 156.548 468.214 156.548 470.893 156.548 473.17 155.61 475.044 153.735 Z M320.357 50.476 L423.214 50.476 423.214 37.619 320.357 37.619 Z M475.044 102.307 C476.919 100.432 477.857 98.155 477.857 95.476 477.857 92.798 476.919 90.521 475.044 88.646 473.17 86.771 470.893 85.833 468.214 85.833 465.535 85.833 463.259 86.771 461.384 88.646 459.509 90.521 458.571 92.798 458.571 95.476 458.571 98.155 459.509 100.432 461.384 102.307 463.259 104.182 465.535 105.119 468.214 105.119 470.893 105.119 473.17 104.182 475.044 102.307 Z M475.044 50.878 C476.919 49.003 477.857 46.726 477.857 44.048 477.857 41.369 476.919 39.092 475.044 37.217 473.17 35.342 470.893 34.405 468.214 34.405 465.535 34.405 463.259 35.342 461.384 37.217 459.509 39.092 458.571 41.369 458.571 44.048 458.571 46.726 459.509 49.003 461.384 50.878 463.259 52.753 465.535 53.691 468.214 53.691 470.893 53.691 473.17 52.753 475.044 50.878 Z M487.5 127.619 L487.5 166.191 307.5 166.191 307.5 127.619 Z M487.5 76.19 L487.5 114.762 307.5 114.762 307.5 76.19 Z M487.5 24.762 L487.5 63.334 307.5 63.334 307.5 24.762 Z" fill="#704def" fill-opacity="1" stroke="none"/>
 <path id="" d="M357.682 393.805 C369.561 396.284 382.334 397.524 396 397.524 409.666 397.524 422.439 396.284 434.317 393.805 446.196 391.325 455.566 387.664 462.428 382.82 L462.428 397.524 C462.428 401.503 459.459 405.193 453.519 408.595 447.58 411.997 439.507 414.693 429.301 416.683 419.094 418.672 407.994 419.667 396 419.667 384.006 419.667 372.906 418.672 362.699 416.683 352.493 414.693 344.42 411.997 338.48 408.595 332.541 405.193 329.571 401.503 329.571 397.524 L329.571 382.82 C336.433 387.664 345.804 391.325 357.682 393.805 Z M357.682 460.233 C369.561 462.713 382.334 463.953 396 463.953 409.666 463.953 422.439 462.713 434.317 460.233 446.196 457.754 455.566 454.092 462.428 449.248 L462.428 463.953 C462.428 467.931 459.459 471.622 453.519 475.024 447.58 478.426 439.507 481.122 429.301 483.111 419.094 485.101 407.994 486.095 396 486.095 384.006 486.095 372.906 485.101 362.699 483.111 352.493 481.122 344.42 478.426 338.48 475.024 332.541 471.622 329.571 467.931 329.571 463.953 L329.571 449.248 C336.433 454.092 345.804 457.754 357.682 460.233 Z M357.682 427.019 C369.561 429.499 382.334 430.738 396 430.738 409.666 430.738 422.439 429.499 434.317 427.019 446.196 424.539 455.566 420.878 462.428 416.034 L462.428 430.738 C462.428 434.717 459.459 438.407 453.519 441.81 447.58 445.212 439.507 447.908 429.301 449.897 419.094 451.886 407.994 452.881 396 452.881 384.006 452.881 372.906 451.886 362.699 449.897 352.493 447.908 344.42 445.212 338.48 441.81 332.541 438.407 329.571 434.717 329.571 430.738 L329.571 416.034 C336.433 420.878 345.804 424.539 357.682 427.019 Z M362.699 334.123 C372.906 332.104 384.006 331.095 396 331.095 407.994 331.095 419.094 332.09 429.301 334.079 439.507 336.069 447.58 338.765 453.519 342.167 459.459 345.569 462.428 349.259 462.428 353.238 L462.428 364.31 C462.428 368.288 459.459 371.979 453.519 375.381 447.58 378.783 439.507 381.479 429.301 383.468 419.094 385.458 407.994 386.453 396 386.453 384.006 386.453 372.906 385.458 362.699 383.468 352.493 381.479 344.42 378.783 338.48 375.381 332.541 371.979 329.571 368.288 329.571 364.31 L329.571 353.238 C329.571 349.259 332.541 345.569 338.48 342.167 344.42 338.765 352.493 336.083 362.699 334.123 Z" fill="#ff5817" fill-opacity="1" stroke="none"/>
 <path id="" d="M76.809 395.143 L128.238 395.143 128.238 375.857 C128.238 368.759 125.727 362.699 120.705 357.676 115.682 352.654 109.622 350.143 102.524 350.143 95.425 350.143 89.365 352.654 84.343 357.676 79.32 362.699 76.809 368.759 76.809 375.857 Z M160.381 404.786 L160.381 462.643 C160.381 465.322 159.443 467.598 157.568 469.473 155.693 471.348 153.417 472.286 150.738 472.286 L54.309 472.286 C51.631 472.286 49.354 471.348 47.479 469.473 45.604 467.598 44.666 465.322 44.666 462.643 L44.666 404.786 C44.666 402.107 45.604 399.831 47.479 397.956 49.354 396.08 51.631 395.143 54.309 395.143 L57.524 395.143 57.524 375.857 C57.524 363.536 61.943 352.956 70.782 344.116 79.622 335.277 90.202 330.857 102.524 330.857 114.845 330.857 125.425 335.277 134.265 344.116 143.104 352.956 147.524 363.536 147.524 375.857 L147.524 395.143 150.738 395.143 C153.417 395.143 155.693 396.08 157.568 397.956 159.443 399.831 160.381 402.107 160.381 404.786 Z" fill="#78a942" fill-opacity="1" stroke="none"/>
 <path id="" d="M133.19 98.691 C133.19 97.753 132.889 96.983 132.286 96.38 L96.929 61.023 C96.327 60.42 95.556 60.119 94.619 60.119 93.681 60.119 92.911 60.42 92.309 61.023 L57.052 96.28 C56.382 97.083 56.047 97.887 56.047 98.691 56.047 99.628 56.349 100.398 56.952 101.001 57.554 101.603 58.324 101.905 59.262 101.905 L81.762 101.905 81.762 137.262 C81.762 138.133 82.08 138.886 82.716 139.522 83.352 140.158 84.106 140.476 84.976 140.476 L104.262 140.476 C105.132 140.476 105.886 140.158 106.522 139.522 107.158 138.886 107.476 138.133 107.476 137.262 L107.476 101.905 129.976 101.905 C130.847 101.905 131.6 101.587 132.236 100.951 132.872 100.314 133.19 99.561 133.19 98.691 Z M197.476 127.619 C197.476 138.266 193.709 147.357 186.176 154.89 178.642 162.424 169.552 166.191 158.905 166.191 L49.619 166.191 C37.231 166.191 26.633 161.788 17.827 152.982 9.022 144.176 4.619 133.579 4.619 121.191 4.619 112.485 6.963 104.449 11.65 97.083 16.338 89.717 22.632 84.193 30.534 80.51 30.4 78.501 30.333 77.061 30.333 76.19 30.333 61.994 35.355 49.874 45.4 39.829 55.445 29.784 67.565 24.762 81.762 24.762 92.208 24.762 101.767 27.675 110.439 33.501 119.111 39.327 125.423 47.061 129.373 56.704 134.128 52.552 139.686 50.476 146.048 50.476 153.146 50.476 159.206 52.988 164.228 58.01 169.25 63.032 171.762 69.092 171.762 76.19 171.762 81.28 170.389 85.9 167.644 90.052 176.349 92.128 183.497 96.665 189.089 103.663 194.68 110.661 197.476 118.646 197.476 127.619 Z" fill="#0056b9" fill-opacity="1" stroke="none"/>
</svg>
