<?xml version="1.0"?><svg version="1.2" baseProfile="tiny-ps" viewBox="0 0 500 500" xmlns="http://www.w3.org/2000/svg" xmlns:xlink="http://www.w3.org/1999/xlink"><title>devopsish</title><g><g fill="#fcfcfc" transform="matrix(.1 0 0 -.1 0 500)"><path d="M0 2500V0h5000v5000H0V2500z"/></g><g fill="#e0dfe1" transform="matrix(.1 0 0 -.1 0 500)"><path d="M721 4749l-55-9-74-36-74-36-64-63-63-64-31-60c-16-34-37-87-45-118l-15-57v-105l-55-37c-69-45-118-101-156-179l-29-60-11-60-11-60 6-58c25-248 183-435 404-477l57-11 615 3 615 3 53 22c108 44 204 141 244 245l20 53 5 70 5 70-16 63c-28 111-93 198-197 264l-53 34-1 100v99l-25 48-24 49-39 35c-22 19-58 43-81 53l-41 19-75 6-75 7-44-12-45-12-20 29c-11 15-47 55-80 88l-61 60-61 32c-78 42-150 60-260 67l-89 5-54-10zm431-596c82-81 148-151 148-155v-7l-112-3-113-3-5-190-5-190-69-3-69-3-11 11-11 11-5 161-5 161-28 21-28 20-82 6-82 5 150 153 149 152h31l147-147zm1925 600c-4-3-7-90-7-193v-187l16-32c8-17 24-36 34-41l19-10h1772l24 25 25 24v352l-11 21-11 20-33 14-34 14H3083l-6-7zm1681-195c18-18 15-36-14-64l-25-26-20 18-19 17v18c0 38 52 63 78 37zm-533-38v-15h-920l-3 18-4 17 464-2 463-3v-15zm-1155-474v-193l23-33 22-34 32-8 32-8 867 2 866 3 24 28 24 28v174c0 95-3 181-6 190-4 8-19 22-35 30l-28 15H3070v-194zm1681 4l19-11v-36l-25-23-26-24-17 10-17 11-3 26-3 25 23 16c27 19 24 19 49 6zm-523-42l3-18h-931v13c0 8 3 17 7 20l7 7 455-2 456-3 3-17zm-1158-472v-194l18-31 17-31 25-10 25-10 883 2 884 3 19 24 19 23v357l-24 28-24 28-921 3-921 2v-194zm1690-11l12-14-7-21-7-21-24-11-23-11-16 13-15 12v22c0 12 5 27 12 34s22 12 34 12h22l12-15zm-552-11l23-7-3-16-3-16h-920l-3 17-3 16 18 5c27 7 865 8 891 1zm-566-727l-22-23v-62l19-23 18-23h72l20 18c10 9 22 28 25 42l6 24-14 29c-17 32-34 41-75 41h-28l-21-23zm701 0l-63-21v-46h60l-2-232-3-233-27-3-28-3v-49h250v40l-25 10-25 10v260h90l20-20 20-20v-230h-40v-50h240v49l-27 3-28 3-5 152-5 153-28 27-28 28-57-1-57-1-47-21-48-21v239l-37-1c-21 0-66-10-100-22zm-893-12l-13-16 12-87c7-48 15-97 18-110l5-23 12 4 11 4 12 69c6 38 12 87 12 110l1 40-12 12c-17 17-43 15-58-3zm-1415-15c-27-4-67-15-88-24l-38-17-43-43-43-43-18-53-17-53 4-71 5-71 26-51 26-51 33-28c18-16 53-37 78-48l45-21h170l53 24 53 23 44 49 45 50 15 51c19 64 19 120 0 184l-15 50-41 47-41 47-37 19c-33 17-69 25-141 35-14 1-47-1-75-5zm130-90c8-7 24-33 37-58l23-47v-170l-18-47-18-47-30-26-31-25h-67l-36 31-35 31-16 56-17 56 6 76 5 77 20 39c24 47 41 63 79 73l28 8 28-8c16-5 35-13 42-19zm-1965 56v-25l28-3 27-3v-440l-27-3-28-3v-49h369l48 16c26 9 62 28 81 42l33 25 27 46 27 46v200l-28 48-29 49-46 29c-25 16-62 34-82 39l-35 10H200v-24zm348-63c14-10 35-37 46-59l21-39v-180l-21-39c-11-22-32-49-46-59l-27-20-50-5-51-5v436l51-5 50-5 27-20zm405-68l-51-26-28-40-28-41-4-63-4-63 11-35c17-50 46-84 93-108l41-21 53-5 53-6 63 13c35 6 75 18 90 26l28 15v39c0 22-2 40-4 40s-23-9-47-20l-44-20h-111l-22 16c-24 17-52 64-52 89v15h280v33c-1 41-23 102-47 129-10 11-36 29-58 39l-40 19h-121l-51-25zm139-52c9-10 18-33 20-50l5-33H988l6 32c3 17 14 40 23 50l16 18h44l15-17zm1423 52l-70-23v-47l28-3 27-3-2-222-3-222-27-3-28-3v-49h270v49l-32 3-33 3-3 63-3 62h136l45 21c57 26 77 44 103 94l21 40v130l-22 42-22 41-32 24-33 23h-55l-56-1-38-22c-46-27-46-27-46 3v25l-27-1c-16-1-59-11-98-24zm226-88c9-7 22-23 29-36l13-25-1-52v-52l-16-31c-19-36-38-48-86-53l-35-3-3 133-3 132h43l43-1 16-12zm374 100c-67-26-95-62-95-121v-35l23-26 22-26 74-37 74-37 11-17 11-18-11-17-12-18h-52l-52 1-14 19-14 19v56h-70v-138l18-7c9-4 64-9 122-12l106-6 41 21c23 12 51 33 62 48l21 27v74l-22 28-21 27-84 39-83 38-7 16-6 17 16 16 17 16 35-1 36-1 14-12 15-12v-58h70v128l-50 11c-28 6-77 11-108 10l-57-1-30-11zm525-11l-65-23-3-26-3-27h51v-270h-50v-50h260v50h-60v370l-32-1c-18 0-62-11-98-23zm335 11c-67-26-95-62-95-121v-35l23-26 22-26 74-37 74-37 11-17 11-18-11-17-12-18h-52l-52 1-14 19-14 19v56h-70v-138l18-7c9-4 64-9 122-12l106-6 41 21c23 12 51 33 62 48l21 27v74l-22 28-21 27-84 39-83 38-7 16-6 17 16 16 17 16 35-1 36-1 14-12 15-12v-58h70v128l-50 11c-28 6-77 11-108 10l-57-1-30-11zm-2685-26v-30l27-3 26-3 66-173 66-173 58 3 59 3 44 110c24 61 56 138 70 173l26 62h48v60h-181l3-27 3-27 22-6 21-5-32-80c-18-44-36-89-40-100l-8-20-37 100-38 100 23 3 24 3v59h-250v-29zm-340-892l-55-9-71-35-72-35-55-60-55-59-26-55c-15-31-31-79-36-107l-10-52v-227h-67l-26-26-27-26-5-32c-3-17-5-166-3-331l3-300 25-50 25-50 35-17 35-18h1010l34 18c19 9 44 30 55 45l21 28 3 322 2 322-17 35-18 35-35 22c-19 13-41 27-47 33l-13 11v195l-15 59c-9 32-28 81-43 109l-27 51-60 61-61 62-59 29c-68 34-130 50-225 57l-65 4-55-9zm187-284l52-15 40-46 41-46 5-32c3-17 5-71 3-121l-3-90-199-3-200-2-10 10-11 11 2 89 3 90 15 37c26 61 73 102 145 124 39 11 62 10 117-6zm2560 269c-49-7-123-23-166-34l-77-21-60-33-59-33-22-33-23-33v-138l16-49 16-48 31-32c66-68 168-108 355-141l117-20 170-1h170l85 11c110 16 227 46 295 76s72 24 7-9c-63-32-166-62-277-81l-90-16-135-6-135-6-103 12c-147 16-245 38-342 76-47 18-98 35-115 38-16 2-38 8-49 12l-18 8 3-94 4-94 25-50 25-50 48-32c94-63 248-105 458-124l124-11 116 6c183 10 328 39 464 91l20 8-10-11c-18-20-141-61-251-82l-109-22-175-5-175-5-105 16c-134 21-221 43-290 73-30 13-73 28-95 32-22 5-48 12-57 16l-18 7V681l21-55 20-56 41-35 41-35 76-29c92-35 197-58 339-72l107-11 145 5 145 6 88 16c164 30 266 69 333 127l37 33 13 32 14 32v60c0 33-4 71-10 85l-9 25-28 7c-15 4-31 11-34 17l-6 9-24-11-24-12 25 18c55 40 78 64 94 97l16 34v138l-16 22-15 22h-20c-11 0-27 6-35 14l-14 15 31 22 31 22 19 41 19 41v136l-14 32-13 32-37 33c-50 43-99 67-201 97l-87 25-115 15-114 15-172-1-172-1-88-14zM3290 433v-78l13-43c34-115 158-185 397-227l95-16 150-6 150-6 134 17 134 18 84 24c100 29 150 53 199 96l37 33 13 32 14 32v132l-25 24c-13 14-31 25-39 25s-16 5-18 11l-3 10-45-25c-59-34-173-71-285-93l-90-18h-450l-90 18-90 19-107 40-107 40-9-6-9-5-19 14c-10 8-22 15-26 15h-8v-77z"/></g><g fill="#bcb8bc" transform="matrix(.1 0 0 -.1 0 500)"><path d="M649 4726c-82-29-138-67-210-143l-57-59-27-53-27-53-14-67c-7-36-14-87-14-113v-48h-9c-5 0-32-18-61-39l-52-39-44-59-44-58-22-65-22-65 1-85 1-85 21-56c30-78 87-165 151-227l53-52 61-30 61-30 57-10 56-11 609 3 608 3 52 21c29 12 75 38 102 58l50 37 40 60c46 69 60 109 68 194l5 60-16 65c-30 116-96 202-201 261l-56 31 7 83 7 82-17 50-17 50-35 41-35 41-72 36-72 35-46 6-46 6-59-17-59-17-14 24c-8 12-43 51-77 85l-61 61-79 40c-44 22-104 47-133 56l-55 16H715l-66-24zm518-558l162-162-11-13-10-13h-238l-2-187-3-188-84-3-84-3-8 13-9 13v295l-19 18c-11 9-26 23-35 30l-15 12H661l-6 11-7 10 153 156c132 132 173 169 198 172 3 1 78-72 168-161zm1903 392v-191l18-6c9-4 25-17 35-30l18-23h1759l20 20 20 20v340l-19 18c-11 9-26 23-35 30l-15 12H3070v-190zm1700 11l10-20-7-18c-3-10-15-28-26-40l-20-23h-55l-6 16c-3 9-6 27-6 40v24l20 20 20 20h59l11-19zm-556-7l16-6v-58h-961l3 22 3 22 25 13 25 13h437c240 0 443-3 452-6zm-1137-331c-4-3-7-89-7-191v-184l18-5 18-4 9-22 10-21 39-8 40-8 849 2 849 3 19 24 19 23v329l-35 34-34 35H3083l-6-7zm1687-169c19-19 19-17 2-58l-14-33-31-12-31-13-15 12-15 12v67l26 20c32 25 57 27 78 5zm-534-49v-35l-477 2-478 3-3 18-4 18 12 14 12 15h938v-35zm-1127-292l-33-4v-379h11c6 0 24-13 39-30l28-30h1739l27 21 26 20v335l-16 22c-8 12-21 22-28 22-8 0-16 7-20 15l-5 15-868-2c-477 0-883-3-900-5zm1670-184l10-16-14-28-14-29-27-16-28-15-17 11-18 11-3 27-3 27 16 25 16 25 36-3 36-3 10-16zm-545-36l3-33h-961v18c0 22 11 37 30 45 8 3 220 5 470 4l455-2 3-32zm-583-718l-25-24v-28c1-35 19-59 53-72l27-11 23 9c42 16 58 52 44 102l-7 26-25 11c-14 7-35 12-46 12h-20l-24-25zm703 3l-68-21v-47h60l-2-232-3-232-25-6-25-6-3-22-3-22h241v50h-40v270h99l15-22 16-22v-226h-40v-50h241l-3 22-3 22-25 6-25 6-5 145-5 145-17 27-18 26-41 13-42 12-56-20c-31-12-64-24-73-29l-18-7v242l-32-1c-18-1-63-10-100-21zm-893-14l-17-18 6-45c21-150 35-195 49-158 3 7 11 55 18 106l13 92-11 17c-5 9-17 18-25 20l-16 3-17-17zm-1471-25c-18-5-53-24-80-41l-47-33-30-53-30-53-5-69-5-68 17-48c9-27 28-65 42-86l27-38 44-29 43-29 63-11 62-11 65 11 65 10 40 24c55 32 90 71 117 130l22 50 1 70v70l-28 57-28 57-41 35-40 35-46 15-46 16-75-1c-42 0-90-5-107-10zm174-76l24-15 21-46 22-47v-190l-24-48-23-48-29-14c-15-8-40-15-54-15s-39 7-54 15l-29 14-23 48-23 48-4 69-4 69 11 53 12 53 21 27c12 14 35 33 52 40l31 14 25-6c14-3 36-12 48-21zm-1958 53v-26h58l6-16c3-9 6-104 6-213v-197l-12-12c-7-7-22-12-35-12h-23v-52l198 4 197 3 58 28 57 29 30 42 29 43 12 47 12 47-5 62-5 63-21 39c-27 54-68 94-122 119l-45 21-197 3-198 4v-26zm348-63l27-19 20-40 20-39v-180l-20-39-20-40-27-19-27-20-50-5-51-5v436l51-5 50-5 27-20zm428-57l-39-15-33-32-34-33-16-43-17-43 6-59 5-58 26-40 26-40 43-24 42-24 90 1 90 1 50 19 50 20 3 41 3 41-52-19-51-20h-53l-53-1-19 11-20 10-17 35c-9 19-16 41-16 50v16h283l-5 43c-3 23-13 60-23 81l-18 38-39 25-38 26-68 4-67 3-39-14zm118-62c9-8 16-21 16-27 0-7 3-22 6-34l6-23H988l6 32c3 17 14 40 23 50l16 18h46l15-16zm1423 50l-78-25 3-22 3-22 28-3 27-3v-449h-50v-50h261l-3 22-3 23-30 5-30 5-3 61-3 61 80 5 80 5 48 29 47 29 25 49 25 48-1 63v64l-27 45-27 46-39 20-39 20h-56l-53-25c-30-14-56-25-58-25s-4 11-4 25v25h-22c-13-1-58-12-101-26zm237-97l23-23 7-45 6-44-12-44-13-44-25-19-25-19-38-6-37-6v273h91l23-23zm361 109l-40-15-27-31-28-30v-76l16-22 16-23 87-44 88-44 6-15c4-9 4-23 1-31l-6-15-25-6c-13-4-41-4-61 0l-37 6-12 17c-7 9-13 29-13 45v28h-70v-138l50-11c28-6 83-11 122-11h72l44 21 44 22 19 31 19 31v63l-25 30-25 30-70 28c-38 15-77 35-86 45l-16 18 4 17 3 18 31 9 32 9 28-13 29-14 5-30 5-30 33-3 32-3v129l-22 6c-13 4-59 9-103 11l-80 5-40-14zm527-13l-73-25 3-22 3-21 28-3 28-3-3-132-3-132-27-3-28-3v-49h260v50h-60v370l-27-1c-16 0-61-12-101-26zm333 13l-40-15-27-31-28-30v-76l16-22 16-23 87-44 88-44 6-15c4-9 4-23 1-31l-6-15-25-6c-13-4-41-4-61 0l-37 6-12 17c-7 9-13 29-13 45v28h-70v-138l50-11c28-6 83-11 122-11h72l44 21 44 22 19 31 19 31v63l-25 30-25 30-70 28c-38 15-77 35-86 45l-16 18 4 17 3 18 31 9 32 9 28-13 29-14 5-30 5-30 33-3 32-3v129l-22 6c-13 4-59 9-103 11l-80 5-40-14zm-2683-23l3-27 25-6 25-6 65-169 66-170 55-3 56-3 70 173 71 173 23 5 24 6 3 27 3 28-88-3-88-3v-50l23-3c12-2 22-4 22-6 0-8-73-183-79-189l-8-8-31 83c-16 46-33 91-37 101l-7 17h52v60h-251l3-27zm-409-914l-63-20-62-47-62-47-43-63-42-62-17-53-16-52-5-137-6-138h-59l-28-28-28-29-7-44c-3-24-5-171-3-326l3-281 31-44 31-43 34-17 34-18h1000l33 20 33 20 15 35 14 34v592l-14 34-14 34-44 27c-24 15-46 32-50 38s-8 52-8 103v92l-11 53c-6 29-25 80-42 113l-30 60-61 60-61 60-75 37c-41 20-93 41-115 47l-40 11-80-1h-80l-62-20zm293-257c51-26 82-60 94-103l10-34v-225H841l-7 36-7 36 7 70c12 131 65 203 176 239l25 8 51-3 51-4 39-20zm2542 263c-117-16-232-47-302-80l-51-24-35-36-35-36v-165l38-55 38-55 52-31c80-47 201-82 360-103l78-10h294l104 15c169 24 293 65 365 120l34 26 16 34 16 33v121l-11 28c-5 15-22 41-37 56l-27 29-76 38c-85 43-148 63-269 86l-85 16-185 4-185 3-97-14zm-426-593l3-89 41-54 42-55 58-31c72-38 177-69 304-88l95-15h337l106 16c58 8 139 26 181 39l76 24 54 33c30 18 63 45 74 60l20 27 5 55c2 30 1 67-2 81l-7 26-24 11-25 11v39l-7-4c-5-2-39-19-78-37l-70-33-90-23c-49-13-141-29-203-35l-114-13-181 6-182 6-95 20c-98 20-246 69-286 96-13 8-26 15-30 15-3 0-4-40-2-88zm1248-283l-75-38-85-20c-47-11-121-25-165-31l-80-11-175 1h-175l-100 15c-126 19-227 47-312 85-36 17-70 30-75 30h-10l3-84 4-84 45-58 45-57 63-33 63-32 82-20c45-11 118-26 162-33l80-13 175 1h175l100 17c55 9 138 28 184 43l83 26 46 31c25 17 55 43 66 59l20 27 4 64 4 63-11 22-12 21h-39v25c0 30 3 31-90-16zM3290 431v-70l10-27c17-44 71-105 120-136l45-29 76-24c109-34 234-54 384-61l130-7 124 12 124 12 94 24c163 42 249 91 279 162l14 32v102l-10 20-11 19h-39v40h-10c-6 0-21-7-34-15-12-8-60-29-106-46l-83-30-111-19c-61-10-163-21-226-25l-115-7-135 12-135 11-95 21c-91 19-235 70-254 89-6 5-16 9-23 9h-13v-69z"/></g><g fill="#8e8e8f" transform="matrix(.1 0 0 -.1 0 500)"><path d="M681 4734c-156-42-298-175-350-331l-20-59-7-77-7-77-41-24c-23-13-63-47-89-75l-48-52-32-67-31-67-4-88-5-89 18-64 17-65 38-57 37-58 51-44c28-25 75-60 104-77l53-32 62-16 61-16 624 3 623 3 57 27 57 27 51 47 50 47 33 66 32 66v200l-26 55-26 55-52 57c-28 31-76 73-106 92l-54 36 6 83 6 83-13 40-13 39-56 58-56 59-47 24-47 24h-68l-68-1-40-17-39-18-43 57-43 57-62 51c-72 59-141 96-219 116l-54 15-80-1h-80l-54-15zm486-546l163-162v-34l-16-6c-9-3-65-6-125-6h-109l-1-7c-1-5-4-89-8-188l-6-180-96-3-97-3-3 157-4 156-23 18-22 18v32H630v13c0 7 78 90 173 185l173 172h28l163-162zm1913 372v-190h36l17-20 17-20h1739l15 16 16 15v329l-25 16-25 16v28H3080v-190zm1688 38l12-12v-56l-27-29-28-30-26-6-26-6-17 16-16 16v61l29 29 29 29h58l12-12zm-538-63v-45h-474c-261 0-481 3-490 6l-16 6v17c0 9 7 27 16 39l15 22h949v-45zm-1150-490v-195h43l13-17 12-18 863-3 862-2 24 15 23 15v330l-25 22c-14 12-25 28-25 35v13H3080v-195zm1693 32l8-12-5-35-5-35-26-22-26-23h-55l-12 12-12 12v62l16 22c9 13 26 27 38 32l21 9 25-5c14-3 28-11 33-17zm-543-52v-45l-487 2-488 3-3 22-3 22 20 20 21 21h940v-45zm-1150-495v-190h37l18-20 18-20h1736l15 16 16 15v325l-25 22c-14 12-25 26-25 32v10H3080v-190zm1688 38l12-12v-56l-27-30-28-31-33-1-34-1-9 14c-5 8-9 28-9 45v31l26 27 27 26h63l12-12zm-538-58v-40h-982l6 32c3 18 12 36 19 40l12 8h945v-40zm-567-710c-45-18-55-72-22-114l20-26h69l20 20 20 20v69l-26 20c-29 23-46 25-81 11zm687-14l-65-23-3-21-3-22h61v-470h-50v-50h230v50h-41l3 138 3 137 45-3 44-3 18-16 18-16v-235l-20-5-20-5v-42h230v50h-50v271l-14 34-14 33-24 13-23 13-46-1-46-1-48-21c-26-11-49-21-51-21s-4 54-4 120v120l-32-1c-18 0-62-11-98-23zm-894-12c-20-19-20-13 1-134 23-139 31-134 55 34l12 88-19 14c-24 18-30 18-49-2zm-1474-29c-55-17-100-48-135-93l-28-36-16-55-15-55 6-59 6-59 19-41c10-23 34-57 52-76l34-34 52-24 52-24h139l40 10c22 6 62 26 88 44l48 32 28 45 28 45 10 55 10 56-10 54-10 55-28 45-28 45-48 32c-60 41-104 53-186 52h-65l-43-14zm190-82l28-27 15-50 15-50v-122l-15-51-15-51-29-31-29-31h-88l-23 16-23 17-24 51-24 51v160l10 37c12 42 53 96 84 109l21 9 34-5 34-4 29-28zm-1972 64v-26l33-3 32-3v-440l-32-3-33-3v-51l198 4 197 4 40 18c22 10 57 34 78 54l37 36 20 53 20 54v108l-20 55-21 54-39 36c-22 20-57 43-77 53l-38 17-197 4-198 4v-25zm340-60l34-22 20-35 21-35v-200l-21-35-20-35-34-22-33-23h-87v430h87l33-23zm446-59l-38-11-43-41-43-41-11-40c-6-22-11-58-11-80v-40l19-40 18-40 36-32 36-31 58-13 58-12 65 11c36 6 82 18 103 27l37 15v72l-22-7c-13-4-49-14-81-23l-58-15-40 12-40 12-19 32c-11 18-20 42-20 55v22h283l-7 46-6 46-22 39-22 39-50 25-50 25-45-1c-26-1-63-6-85-11zm120-83c7-19 14-41 14-50v-15H990v21c0 23 18 60 34 71 6 4 24 8 39 8h28l15-35zm1419 70l-70-23-3-21-3-21h51v-460h-50v-50h250v50h-60v130h58c31 0 74 5 95 11l38 10 41 37 41 37 14 32 13 32v120l-11 28c-5 15-24 43-42 61l-31 32-38 10-37 11-28-7c-15-4-45-15-65-25-47-24-48-24-48 6v25l-22-1c-13-1-54-11-93-24zm222-91l22-14 11-42 12-42-7-43-6-44-27-30-27-30-42-6-43-6v272l18 4c23 6 62-3 89-19zm388 107c-44-11-71-28-94-57l-21-27v-74l24-26 24-26 81-41 82-41 5-14 6-13-12-21-11-21h-95l-22 16-22 15v69h-70v-137l57-12c31-6 84-11 118-11h61l50 25 49 24 18 30c21 36 22 63 1 103l-16 30-76 35c-42 20-85 42-94 51l-18 15v37l24 11 24 12 37-7 36-7 4-12c2-7 6-24 9-39l6-28h60v128l-32 6c-17 3-61 8-97 11l-66 4-30-8zm508-17l-73-26v-37l28-3 27-3v-270l-27-3-28-3v-49h261l-3 23-3 22-27 3-28 3-2 182-3 182-25 2-25 2-72-25zm352 17c-44-11-71-28-94-57l-21-27v-74l24-26 24-26 81-41 82-41 5-14 6-13-12-21-11-21h-95l-22 16-22 15v69h-70v-137l57-12c31-6 84-11 118-11h61l50 25 49 24 18 30c21 36 22 63 1 103l-16 30-76 35c-42 20-85 42-94 51l-18 15v37l24 11 24 12 37-7 36-7 4-12c2-7 6-24 9-39l6-28h60v128l-32 6c-17 3-61 8-97 11l-66 4-30-8zm-2698-8c-4-3-7-14-7-24v-17l28-6 27-7 66-172 66-172 54-3 55-3 69 172 70 172 28 11 28 11-3 20-3 20-82 3-83 3v-26c0-14 3-25 8-25 4 0 13-4 20-9l13-8-32-79c-17-43-36-90-41-104l-10-25-39 104-39 105 12 8c7 4 19 8 26 8h12v50h-118c-65 0-122-3-125-7zm-387-927c-69-19-128-53-183-104-66-62-101-115-126-190l-21-61v-271h-25c-34 0-82-25-95-49l-10-20V349l10-19c6-11 31-35 57-55l46-35h1019l34 34 35 35-3 322-3 322-61 56-61 56-5 126-4 127-37 74-37 75-78 75-79 75-55 26c-72 34-128 47-208 46l-65-1-45-12zm271-247l39-19 27-42 28-41 3-139 4-138H820v215l19 40c32 69 102 127 176 146l30 8 49-5 49-5 38-20zm2644 255c-16-2-70-9-120-15-105-13-236-49-304-84l-48-24-27-31-26-32v-182l53-48 52-49 61-29 61-30 84-19c46-11 121-25 167-32l83-11 202 5 202 5 75 17c104 23 205 59 251 90l40 26 19 32 20 32v136l-14 28c-46 89-190 159-401 196l-90 16-155 4c-85 2-168 2-185-1zm-525-610v-88l52-49c84-79 182-119 373-152l100-18h350l80 12c125 20 204 41 280 76l70 32 29 31 29 31 5 50c2 27 2 61-2 75l-6 26h-30l-6 30c-4 17-8 30-11 30-2 0-30-13-61-29-107-54-248-85-457-101l-135-10-137 10-138 11-100 20-100 20-80 35c-44 19-86 38-92 41l-13 5v-88zm0-329v-84l30-35c17-19 55-51 84-70l53-35 75-25c41-14 120-33 174-43l99-17h390l95 18c121 22 232 59 292 97l46 30 16 33 16 34v49c0 53-6 66-32 76l-18 6v26c0 14-2 25-4 25s-23-11-47-24c-97-52-247-89-444-107l-130-11-125 6c-69 4-175 16-236 26l-111 19-83 30c-46 17-94 38-106 46-13 8-26 15-29 15s-5-38-5-85zm0-334v-89l56-51c85-78 172-115 344-147l85-16 165-5 165-5 117 15c65 9 153 25 196 37l78 21 60 33 59 33 23 33 22 33v117l-25 16-25 16v48l-57-29c-75-37-164-64-288-87l-100-18h-430l-100 18c-124 23-213 50-287 87l-58 29v-89z"/></g><g fill="#76a942" transform="matrix(.1 0 0 -.1 0 500)"><path d="M681 4734c-30-8-77-27-105-42l-50-27-63-59-63-59-40-81-40-81-11-79c-6-43-8-84-5-92l5-14-52-33c-29-19-72-55-95-81l-44-47-30-66-31-65-5-92-5-92 18-59c23-80 58-138 123-202l55-54 71-34c39-18 91-39 116-45l45-11 630 3 630 3 55 26 55 26 47 46 47 47 28 58 28 57v200l-33 68-33 67-54 59-54 58-46 24-46 24 8 45c4 25 7 65 6 89l-2 43-21 43c-12 24-36 64-55 88l-34 45-53 26-52 26h-133l-45-23-46-23-51 72-51 73-52 41c-65 52-131 86-205 105l-57 15-76-1h-75l-54-15zm483-543l168-168-4-19-3-19-123-3-122-3v-358l-16-15-15-16h-77c-42 0-87 3-99 6l-23 6v284l-15 20-14 19-1 28v27H610v34l173 173 173 173h39l169-169zm1916 369v-190h68l4-12 5-13h1722l12 12 12 12 2 128c1 70-1 141-5 158l-7 30-11-2-12-3 2 18c1 9 0 25 0 35l-2 17H3080v-190zm1684 48l16-22v-54l-25-30-25-30-27-6-26-7-29 12-28 11v30c0 16 7 42 15 58l15 29 28 15c15 9 37 15 49 16h22l15-22zm-534-63v-55h-949l-26 10-25 10 6 27c3 16 15 36 26 46l20 17h948v-55zm-1150-500v-195h69l6-10 6-10h1717l13 16 13 15 1 107c1 59 0 129-3 155l-5 48-14-6-15-5 6 16c3 8 3 26 0 40l-6 24H3080v-195zm1686 44l16-31-6-34-7-33-26-21-26-20h-66l-15 16-16 15v55l17 24c21 31 40 43 78 51 17 4 31 7 32 8 1 0 10-13 19-30zm-536-54v-55H3228l7 38c8 44 19 59 48 65 12 2 230 5 485 6l462 1v-55zm-1150-505v-190h69l6-10 6-10h1728l7 12c9 15 13 253 4 293l-7 30-13-3-13-3 6 22c3 11 3 27 0 35l-5 14H3080v-190zm1684 48l16-22v-56l-27-30-28-31-30-1c-17-1-41 2-54 7l-23 7 5 44 5 45 18 21c22 23 50 36 81 37l22 1 15-22zm-534-58v-50l-497 2-498 3 2 29 2 28 17 19 17 19h957v-50zm-561-721l-26-10-12-26-12-25 7-22c3-11 13-29 22-38l15-18h67l20 20 20 20v67l-17 15c-10 9-27 18-38 21l-20 5-26-9zm686-13l-70-22-3-22-3-22h61v-469l-22-3-23-3-3-22-3-23h231v42l-20 5-20 5v278h29c36 0 83-17 93-33l8-12v-234l-20-6-20-6v-39h231l-3 23-3 22-22 3-23 3v258l-11 28c-6 15-20 38-31 51l-21 22h-97l-52-20c-29-11-54-20-55-20-2 0-3 54-3 120v120l-27-1c-16 0-59-11-98-23zm-904-25l-10-19 15-88c16-95 22-119 29-113 2 2 11 47 20 98l16 95-6 23-5 23h-49l-10-19zm-1474-18l-49-16-48-44-49-44-18-47-18-47 1-70 1-70 22-50 22-50 32-33c18-19 50-43 72-55l40-20 80-5 80-4 41 11c22 6 60 24 85 40l44 30 32 48 32 48 9 58 9 58-8 45c-12 63-35 108-78 150l-36 36-45 21-45 21-80 3-80 3-48-17zm187-73l35-31 17-51 16-50-4-87-4-86-24-45-25-45-37-18-38-19-33 11c-44 15-73 46-92 101l-16 45v168l25 51 25 51 28 17 28 17 32 1h32l35-30zm-1964 56v-25l33-3 32-3v-440l-32-3-33-3v-51l193 4 192 3 52 24 53 23 34 38 34 37 13 39 13 39v140l-13 39-13 39-34 37-34 38-53 23-52 24-192 3-193 4v-26zm339-55l35-17 20-40 21-39v-200l-21-39-20-40-35-17c-19-9-53-20-76-23l-43-6v452l43-7c23-4 57-14 76-24zm466-60c-50-13-93-39-118-73-83-112-52-259 67-320l41-21 80 1h80l50 19 50 19 3 38 3 39-18-8c-44-18-109-35-135-35-60 0-118 51-118 105v25h269l5 9c4 5 1 32-5 60l-11 52-25 30c-14 16-38 36-53 44l-28 15-54 4-53 5-30-8zm95-66c6-8 14-32 17-55l6-40H987l6 40c3 23 11 47 17 55l12 15h66l12-15zm1428 49l-78-25v-39h50v-460h-50v-50h251l-3 23-3 22-27 3-28 3v126l73 5 72 5 40 20c50 26 80 57 100 105l15 37v106l-19 40-18 41-32 27-33 27-26 1c-55 2-78-3-124-26l-48-24v59h-17c-10-1-53-12-95-26zm220-86c7-6 20-24 28-39l14-28v-82l-14-32c-7-18-23-40-34-50l-20-19-41-5-41-6v270l8 7 7 8 40-7c21-3 45-11 53-17zm389 102c-72-18-117-66-117-124v-26l29-32 28-32 74-35 73-36 10-17 11-18-11-17c-6-9-21-20-35-23l-24-7-45 11-45 11-5 40-5 40-33 3-33 3 3-68 3-68 50-12c65-14 150-16 198-2l38 10 34 30 34 30 6 28 6 29-15 37-16 36-90 42-91 41-6 25-6 24 18 14c22 15 54 17 88 4l25-10 6-35 7-36h59v128l-42 6c-24 3-65 8-93 10l-50 5-38-9zm516-17l-73-25v-38h50v-277l-30-6-30-6v-41h260v39l-32 9-33 8-3 182-2 182-18-1c-9 0-50-12-89-26zm344 17c-72-18-117-66-117-124v-26l29-32 28-32 74-35 73-36 10-17 11-18-11-17c-6-9-21-20-35-23l-24-7-45 11-45 11-5 40-5 40-33 3-33 3 3-68 3-68 50-12c65-14 150-16 198-2l38 10 34 30 34 30 6 28 6 29-15 37-16 36-90 42-91 41-6 25-6 24 18 14c22 15 54 17 88 4l25-10 6-35 7-36h59v128l-42 6c-24 3-65 8-93 10l-50 5-38-9zm-2707-30v-20h51l13-32c7-18 39-99 70-180l58-148h103l72 178 71 177 26 3 26 3v39h-170v-40h40v-14c0-15-68-186-79-198l-7-8-37 101-37 101 6 9c3 5 14 9 25 9h19v40h-250v-20zm-379-906c-30-8-76-26-102-41l-49-26-55-58-56-58-32-68-32-68-3-151-4-152-40-6-39-6-25-25-24-24V344l16-23 16-23 47-21 46-22 450-3c248-2 474 0 504 3l54 7 23 23 24 24v622l-26 46-27 45-32 15-32 15-7 116-7 116-18 52c-25 74-78 158-137 218l-52 52-49 26c-27 15-76 34-108 43l-59 15-56-1c-30 0-79-7-109-15zm242-213c35-13 87-69 108-116l19-40v-255H800v196l16 46 15 46 35 40 34 40 52 26 52 26h62c35 0 74-4 87-9zm2672 223c-16-2-70-9-120-15-105-13-236-49-304-84l-48-24-27-31-26-32v-175l21-27 21-27 92-44 92-44 75-20c41-11 110-25 154-32l80-13 175 1h175l97 16c118 20 232 56 293 91l45 27 15 29 15 29v134l-22 36c-34 58-59 81-118 111-67 34-137 54-255 75l-90 16-155 4c-85 2-168 2-185-1zm-525-607v-85l26-31 26-31 82-39c140-67 277-97 491-107l130-7 124 12 124 12 92 24 92 23 60 31 61 30 21 27 21 27v108l-15 5-15 6v39c0 21-2 39-5 39s-32-13-63-29c-107-54-248-85-457-101l-135-10-137 10-138 11-100 20-100 20-80 35c-44 19-86 38-92 41l-13 5v-85zm0-331v-84l26-32 27-31 59-30c32-16 98-43 146-59l87-29 118-16 118-15h254l106 14c134 18 218 40 296 77l61 29 26 31 26 31v109l-15 5-15 6v39c0 21-2 39-4 39s-23-11-47-24c-97-52-247-89-444-107l-130-11-125 6c-69 4-175 16-236 26l-111 19-83 30c-46 17-94 38-106 46-13 8-26 15-29 15s-5-38-5-84zm0-335v-89l45-40 44-39 78-32c96-41 192-66 308-80l90-11h300l100 15c114 17 219 46 286 80l46 24 27 32 27 32-3 56-3 56-12-2-13-3v90l-57-29c-75-37-164-64-288-87l-100-18h-430l-100 18c-124 23-213 50-287 87l-58 29v-89z"/></g><g fill="#ff5817" transform="matrix(.1 0 0 -.1 0 500)"><path d="M681 4734c-30-8-77-27-105-42l-50-27-63-59-63-59-40-81-40-81-11-79c-6-43-8-84-5-92l5-14-52-33c-29-19-72-55-95-81l-44-47-30-66-31-65-5-92-5-92 18-59c23-80 58-138 123-202l55-54 71-34c39-18 91-39 116-45l45-11 630 3 630 3 55 26 55 26 47 46 47 47 28 58 28 57v200l-33 68-33 67-54 59-54 58-46 24-46 24 8 45c4 25 7 65 6 89l-2 43-21 43c-12 24-36 64-55 88l-34 45-53 26-52 26h-133l-45-23-46-23-51 72-51 73-52 41c-65 52-131 86-205 105l-57 15-76-1h-75l-54-15zm483-543l168-168-4-19-3-19-123-3-122-3v-358l-16-15-15-16h-77c-42 0-87 3-99 6l-23 6v284l-15 20-14 19-1 28v27H610v34l173 173 173 173h39l169-169zm1916 369v-190h68l4-12 5-13h1722l12 12 12 12 2 128c1 70-1 141-5 158l-7 30-11-2-12-3 2 18c1 9 0 25 0 35l-2 17H3080v-190zm1684 48l16-22v-54l-25-30-25-30-27-6-26-7-29 12-28 11v30c0 16 7 42 15 58l15 29 28 15c15 9 37 15 49 16h22l15-22zm-534-63v-55h-949l-26 10-25 10 6 27c3 16 15 36 26 46l20 17h948v-55zm-1150-500v-195h69l6-10 6-10h1717l13 16 13 15 1 107c1 59 0 129-3 155l-5 48-14-6-15-5 6 16c3 8 3 26 0 40l-6 24H3080v-195zm1686 44l16-31-6-34-7-33-26-21-26-20h-66l-15 16-16 15v55l17 24c21 31 40 43 78 51 17 4 31 7 32 8 1 0 10-13 19-30zm-536-54v-55H3228l7 38c8 44 19 59 48 65 12 2 230 5 485 6l462 1v-55zm-1150-505v-190h69l6-10 6-10h1728l7 12c9 15 13 253 4 293l-7 30-13-3-13-3 6 22c3 11 3 27 0 35l-5 14H3080v-190zm1684 48l16-22v-56l-27-30-28-31-30-1c-17-1-41 2-54 7l-23 7 5 44 5 45 18 21c22 23 50 36 81 37l22 1 15-22zm-534-58v-50l-497 2-498 3 2 29 2 28 17 19 17 19h957v-50zm-561-721l-26-10-12-26-12-25 7-22c3-11 13-29 22-38l15-18h67l20 20 20 20v67l-17 15c-10 9-27 18-38 21l-20 5-26-9zm686-13l-70-22-3-22-3-22h61v-469l-22-3-23-3-3-22-3-23h231v42l-20 5-20 5v278h29c36 0 83-17 93-33l8-12v-234l-20-6-20-6v-39h231l-3 23-3 22-22 3-23 3v258l-11 28c-6 15-20 38-31 51l-21 22h-97l-52-20c-29-11-54-20-55-20-2 0-3 54-3 120v120l-27-1c-16 0-59-11-98-23zm-904-25l-10-19 15-88c16-95 22-119 29-113 2 2 11 47 20 98l16 95-6 23-5 23h-49l-10-19zm-1474-18l-49-16-48-44-49-44-18-47-18-47 1-70 1-70 22-50 22-50 32-33c18-19 50-43 72-55l40-20 80-5 80-4 41 11c22 6 60 24 85 40l44 30 32 48 32 48 9 58 9 58-8 45c-12 63-35 108-78 150l-36 36-45 21-45 21-80 3-80 3-48-17zm187-73l35-31 17-51 16-50-4-87-4-86-24-45-25-45-37-18-38-19-33 11c-44 15-73 46-92 101l-16 45v168l25 51 25 51 28 17 28 17 32 1h32l35-30zm-1964 56v-25l33-3 32-3v-440l-32-3-33-3v-51l193 4 192 3 52 24 53 23 34 38 34 37 13 39 13 39v140l-13 39-13 39-34 37-34 38-53 23-52 24-192 3-193 4v-26zm339-55l35-17 20-40 21-39v-200l-21-39-20-40-35-17c-19-9-53-20-76-23l-43-6v452l43-7c23-4 57-14 76-24zm466-60c-50-13-93-39-118-73-83-112-52-259 67-320l41-21 80 1h80l50 19 50 19 3 38 3 39-18-8c-44-18-109-35-135-35-60 0-118 51-118 105v25h269l5 9c4 5 1 32-5 60l-11 52-25 30c-14 16-38 36-53 44l-28 15-54 4-53 5-30-8zm95-66c6-8 14-32 17-55l6-40H987l6 40c3 23 11 47 17 55l12 15h66l12-15zm1428 49l-78-25v-39h50v-460h-50v-50h251l-3 23-3 22-27 3-28 3v126l73 5 72 5 40 20c50 26 80 57 100 105l15 37v106l-19 40-18 41-32 27-33 27-26 1c-55 2-78-3-124-26l-48-24v59h-17c-10-1-53-12-95-26zm220-86c7-6 20-24 28-39l14-28v-82l-14-32c-7-18-23-40-34-50l-20-19-41-5-41-6v270l8 7 7 8 40-7c21-3 45-11 53-17zm389 102c-72-18-117-66-117-124v-26l29-32 28-32 74-35 73-36 10-17 11-18-11-17c-6-9-21-20-35-23l-24-7-45 11-45 11-5 40-5 40-33 3-33 3 3-68 3-68 50-12c65-14 150-16 198-2l38 10 34 30 34 30 6 28 6 29-15 37-16 36-90 42-91 41-6 25-6 24 18 14c22 15 54 17 88 4l25-10 6-35 7-36h59v128l-42 6c-24 3-65 8-93 10l-50 5-38-9zm516-17l-73-25v-38h50v-277l-30-6-30-6v-41h260v39l-32 9-33 8-3 182-2 182-18-1c-9 0-50-12-89-26zm344 17c-72-18-117-66-117-124v-26l29-32 28-32 74-35 73-36 10-17 11-18-11-17c-6-9-21-20-35-23l-24-7-45 11-45 11-5 40-5 40-33 3-33 3 3-68 3-68 50-12c65-14 150-16 198-2l38 10 34 30 34 30 6 28 6 29-15 37-16 36-90 42-91 41-6 25-6 24 18 14c22 15 54 17 88 4l25-10 6-35 7-36h59v128l-42 6c-24 3-65 8-93 10l-50 5-38-9zm-2707-30v-20h51l13-32c7-18 39-99 70-180l58-148h103l72 178 71 177 26 3 26 3v39h-170v-40h40v-14c0-15-68-186-79-198l-7-8-37 101-37 101 6 9c3 5 14 9 25 9h19v40h-250v-20zm2535-896c-16-2-70-9-120-15-105-13-236-49-304-84l-48-24-27-31-26-32v-175l21-27 21-27 92-44 92-44 75-20c41-11 110-25 154-32l80-13 175 1h175l97 16c118 20 232 56 293 91l45 27 15 29 15 29v134l-22 36c-34 58-59 81-118 111-67 34-137 54-255 75l-90 16-155 4c-85 2-168 2-185-1zM950 1489c-66-20-128-75-160-144l-20-40v-255h30v196l16 46 15 46 35 40 34 40 52 26 52 26h65l66 1-18 10c-11 6-44 13-75 15l-57 3-35-10zm507-104c4-11 9-91 11-177l4-158h38v53c0 28-4 89-10 134l-9 83-21 42c-11 24-17 34-13 23zm1843-308v-85l26-31 26-31 82-39c140-67 277-97 491-107l130-7 124 12 124 12 92 24 92 23 60 31 61 30 21 27 21 27v108l-15 5-15 6v39c0 21-2 39-5 39s-32-13-63-29c-107-54-248-85-457-101l-135-10-137 10-138 11-100 20-100 20-80 35c-44 19-86 38-92 41l-13 5v-85zM1600 657V338l-29-29-29-29h-504l-503-1 20-12 20-12 450-3c248-2 474 0 504 3l54 7 23 23 24 24v627l-15 20-14 19-1-318zm1700 89v-84l26-32 27-31 59-30c32-16 98-43 146-59l87-29 118-16 118-15h254l106 14c134 18 218 40 296 77l61 29 26 31 26 31v109l-15 5-15 6v39c0 21-2 39-4 39s-23-11-47-24c-97-52-247-89-444-107l-130-11-125 6c-69 4-175 16-236 26l-111 19-83 30c-46 17-94 38-106 46-13 8-26 15-29 15s-5-38-5-84zm0-335v-89l45-40 44-39 78-32c96-41 192-66 308-80l90-11h300l100 15c114 17 219 46 286 80l46 24 27 32 27 32-3 56-3 56-12-2-13-3v90l-57-29c-75-37-164-64-288-87l-100-18h-430l-100 18c-124 23-213 50-287 87l-58 29v-89z"/></g><g fill="#704dee" transform="matrix(.1 0 0 -.1 0 500)"><path d="M681 4734c-30-8-77-27-105-42l-50-27-63-59-63-59-40-81-40-81-11-79c-6-43-8-84-5-92l5-14-52-33c-29-19-72-55-95-81l-44-47-30-66-31-65-5-92-5-92 18-59c23-80 58-138 123-202l55-54 71-34c39-18 91-39 116-45l45-11 630 3 630 3 55 26 55 26 47 46 47 47 28 58 28 57v200l-33 68-33 67-54 59-54 58-46 24-46 24 8 45c4 25 7 65 6 89l-2 43-21 43c-12 24-36 64-55 88l-34 45-53 26-52 26h-133l-45-23-46-23-51 72-51 73-52 41c-65 52-131 86-205 105l-57 15-76-1h-75l-54-15zm483-543l168-168-4-19-3-19-123-3-122-3v-358l-16-15-15-16h-77c-42 0-87 3-99 6l-23 6v284l-15 20-14 19-1 28v27H610v34l173 173 173 173h39l169-169zm1916 369v-190h68l4-12 5-13h1722l12 12 12 12 2 128c1 70-1 141-5 158l-7 30-11-2-12-3 2 18c1 9 0 25 0 35l-2 17H3080v-190zm1684 48l16-22v-54l-25-30-25-30-27-6-26-7-29 12-28 11v30c0 16 7 42 15 58l15 29 28 15c15 9 37 15 49 16h22l15-22zm-534-63v-55h-949l-26 10-25 10 6 27c3 16 15 36 26 46l20 17h948v-55zm-1150-500v-195h69l6-10 6-10h1717l13 16 13 15 1 107c1 59 0 129-3 155l-5 48-14-6-15-5 6 16c3 8 3 26 0 40l-6 24H3080v-195zm1686 44l16-31-6-34-7-33-26-21-26-20h-66l-15 16-16 15v55l17 24c21 31 40 43 78 51 17 4 31 7 32 8 1 0 10-13 19-30zm-536-54v-55H3228l7 38c8 44 19 59 48 65 12 2 230 5 485 6l462 1v-55zm-1150-505v-190h69l6-10 6-10h1728l7 12c9 15 13 253 4 293l-7 30-13-3-13-3 6 22c3 11 3 27 0 35l-5 14H3080v-190zm1684 48l16-22v-56l-27-30-28-31-30-1c-17-1-41 2-54 7l-23 7 5 44 5 45 18 21c22 23 50 36 81 37l22 1 15-22zm-534-58v-50l-497 2-498 3 2 29 2 28 17 19 17 19h957v-50zm-561-721l-26-10-12-26-12-25 7-22c3-11 13-29 22-38l15-18h67l20 20 20 20v67l-17 15c-10 9-27 18-38 21l-20 5-26-9zm686-13l-70-22-3-22-3-22h61v-469l-22-3-23-3-3-22-3-23h231v42l-20 5-20 5v278h29c36 0 83-17 93-33l8-12v-234l-20-6-20-6v-39h231l-3 23-3 22-22 3-23 3v258l-11 28c-6 15-20 38-31 51l-21 22h-97l-52-20c-29-11-54-20-55-20-2 0-3 54-3 120v120l-27-1c-16 0-59-11-98-23zm-904-25l-10-19 15-88c16-95 22-119 29-113 2 2 11 47 20 98l16 95-6 23-5 23h-49l-10-19zm-1474-18l-49-16-48-44-49-44-18-47-18-47 1-70 1-70 22-50 22-50 32-33c18-19 50-43 72-55l40-20 80-5 80-4 41 11c22 6 60 24 85 40l44 30 32 48 32 48 9 58 9 58-8 45c-12 63-35 108-78 150l-36 36-45 21-45 21-80 3-80 3-48-17zm187-73l35-31 17-51 16-50-4-87-4-86-24-45-25-45-37-18-38-19-33 11c-44 15-73 46-92 101l-16 45v168l25 51 25 51 28 17 28 17 32 1h32l35-30zm-1964 56v-25l33-3 32-3v-440l-32-3-33-3v-51l193 4 192 3 52 24 53 23 34 38 34 37 13 39 13 39v140l-13 39-13 39-34 37-34 38-53 23-52 24-192 3-193 4v-26zm339-55l35-17 20-40 21-39v-200l-21-39-20-40-35-17c-19-9-53-20-76-23l-43-6v452l43-7c23-4 57-14 76-24zm466-60c-50-13-93-39-118-73-83-112-52-259 67-320l41-21 80 1h80l50 19 50 19 3 38 3 39-18-8c-44-18-109-35-135-35-60 0-118 51-118 105v25h269l5 9c4 5 1 32-5 60l-11 52-25 30c-14 16-38 36-53 44l-28 15-54 4-53 5-30-8zm95-66c6-8 14-32 17-55l6-40H987l6 40c3 23 11 47 17 55l12 15h66l12-15zm1428 49l-78-25v-39h50v-460h-50v-50h251l-3 23-3 22-27 3-28 3v126l73 5 72 5 40 20c50 26 80 57 100 105l15 37v106l-19 40-18 41-32 27-33 27-26 1c-55 2-78-3-124-26l-48-24v59h-17c-10-1-53-12-95-26zm220-86c7-6 20-24 28-39l14-28v-82l-14-32c-7-18-23-40-34-50l-20-19-41-5-41-6v270l8 7 7 8 40-7c21-3 45-11 53-17zm389 102c-72-18-117-66-117-124v-26l29-32 28-32 74-35 73-36 10-17 11-18-11-17c-6-9-21-20-35-23l-24-7-45 11-45 11-5 40-5 40-33 3-33 3 3-68 3-68 50-12c65-14 150-16 198-2l38 10 34 30 34 30 6 28 6 29-15 37-16 36-90 42-91 41-6 25-6 24 18 14c22 15 54 17 88 4l25-10 6-35 7-36h59v128l-42 6c-24 3-65 8-93 10l-50 5-38-9zm516-17l-73-25v-38h50v-277l-30-6-30-6v-41h260v39l-32 9-33 8-3 182-2 182-18-1c-9 0-50-12-89-26zm344 17c-72-18-117-66-117-124v-26l29-32 28-32 74-35 73-36 10-17 11-18-11-17c-6-9-21-20-35-23l-24-7-45 11-45 11-5 40-5 40-33 3-33 3 3-68 3-68 50-12c65-14 150-16 198-2l38 10 34 30 34 30 6 28 6 29-15 37-16 36-90 42-91 41-6 25-6 24 18 14c22 15 54 17 88 4l25-10 6-35 7-36h59v128l-42 6c-24 3-65 8-93 10l-50 5-38-9zm-2707-30v-20h51l13-32c7-18 39-99 70-180l58-148h103l72 178 71 177 26 3 26 3v39h-170v-40h40v-14c0-15-68-186-79-198l-7-8-37 101-37 101 6 9c3 5 14 9 25 9h19v40h-250v-20zM950 1489c-66-20-128-75-160-144l-20-40v-255h30v196l16 46 15 46 35 40 34 40 52 26 52 26h65l66 1-18 10c-11 6-44 13-75 15l-57 3-35-10zm3670-85v-81l-19-25-20-25-58-30c-76-41-174-70-298-88l-100-15h-330l-97 15c-53 8-110 17-125 20l-28 5 45-15c25-9 88-23 140-32l95-16h360l97 16c118 20 232 56 293 91l45 27 15 29 15 29v137l-15 20-14 19-1-81zm-3163-19c4-11 9-91 11-177l4-158h38v53c0 28-4 89-10 134l-9 83-21 42c-11 24-17 34-13 23zm3163-348v-44l-21-27c-46-59-182-112-360-141l-104-17h-360l-115 20c-63 12-116 19-118 18-4-4 114-32 193-46 33-6 119-13 190-16l130-7 124 12 124 12 92 24 92 23 60 31 61 30 21 28 22 27-3 55-3 54-12 5-13 4v-45zM1600 657V338l-29-29-29-29h-504l-503-1 20-12 20-12 450-3c248-2 474 0 504 3l54 7 23 23 24 24v627l-15 20-14 19-1-318zm3020 50v-45l-26-32-27-31-46-23c-64-33-169-64-281-83l-95-17h-380l-94 17c-112 21-133 15-29-7 114-25 231-36 368-36h125l106 14c134 18 218 40 296 77l61 29 27 31 26 32-3 55-3 55-12 5-13 4v-45zm6-294c-3-3-6-25-6-49v-42l-41-37c-50-44-106-70-224-100l-90-23-120-12-120-13-145 6-145 6-84 16c-46 9-85 14-88 12-7-7 121-35 217-46l84-11h301l100 15c114 17 219 46 286 80l46 24 27 31 26 32v107l-9 5c-4 3-11 3-15-1z"/></g><g fill="#636165" transform="matrix(.1 0 0 -.1 0 500)"><path d="M693 4736c-74-18-150-59-212-113l-54-47-39-60-38-60-20-64-20-64v-134l-32-16c-87-42-176-151-209-259l-19-61v-66c1-84 13-139 48-210l27-55 58-59 59-58 71-34c40-19 92-40 117-46l45-11 630 3 630 3 55 26 55 26 47 46 47 47 28 58 28 57v200l-33 68-33 67-54 59-54 58-46 24-46 24 8 45c4 25 7 65 6 89l-2 43-21 43c-12 24-36 64-55 88l-34 45-53 26-52 26h-133l-45-23-46-23-51 72-51 73-52 41c-65 52-131 86-205 105l-57 15-71-1c-38 0-93-6-122-13zm471-545l168-168-4-19-3-19-123-3-122-3v-358l-16-15-15-16h-77c-42 0-87 3-99 6l-23 6v284l-15 20-14 19-1 28v27H610v34l173 173 173 173h39l169-169zm3713 493l-7-7v-307H3150v-19l43-6c23-3 412-5 864-3l822 3 13 13 13 13-1 149v150l-10 10-10 10-7-6zm-239-39c-34-19-48-44-48-87v-34l15-20 14-19 1 28c0 15 7 41 15 57l15 30 30 15c16 8 37 15 47 15h17l-10 10c-5 5-23 12-39 15l-30 5-27-15zm-1438-84v-60l8-5c14-8 27 8 30 39l3 30 21 18 20 17h948v20H3200v-59zm1677-398c-4-3-7-75-7-160v-153H3149l6-10 6-10h1717l13 16 13 15 1 107c3 163-5 219-28 195zm-261-49l-26-27-1-21c-2-42 3-61 21-80l19-19-6 21c-8 32 3 66 33 95l27 27h57v9c0 13-26 21-64 21h-33l-27-26zm-1416-69v-65h28l7 39 7 40 15 13 16 13 479 3 478 3v19H3200v-65zm1677-391l-7-7v-307H3149l6-10 6-10h1728l8 13 7 12v295l-10 10-10 10-7-6zm-233-34c-12-5-29-19-38-32l-16-22v-72l13-19 14-18 6 42 5 43 23 24 22 24 35 6 35 7-18 13c-21 16-50 17-81 4zm-1437-27c-4-3-7-33-7-65v-58h35l1 30 1 30 18 20 18 20h957v30H3213l-6-7zm462-794l-26-10-12-26-12-25 7-22c3-11 13-29 22-38l15-18h67l20 20 20 20v67l-17 15c-10 9-27 18-38 21l-20 5-26-9zm686-13l-70-22-3-22-3-22h61v-469l-22-3-23-3-3-22-3-23h231v42l-20 5-20 5v278h29c36 0 83-17 93-33l8-12v-234l-20-6-20-6v-39h231l-3 23-3 22-22 3-23 3v258l-11 28c-6 15-20 38-31 51l-21 22h-97l-52-20c-29-11-54-20-55-20-2 0-3 54-3 120v120l-27-1c-16 0-59-11-98-23zm-904-25l-10-19 15-88c16-95 22-119 29-113 2 2 11 47 20 98l16 95-6 23-5 23h-49l-10-19zm-1474-18l-49-16-48-44-49-44-18-47-18-47 1-70 1-70 22-50 22-50 32-33c18-19 50-43 72-55l40-20 80-5 80-4 41 11c22 6 60 24 85 40l44 30 32 48 32 48 9 58 9 58-8 45c-12 63-35 108-78 150l-36 36-45 21-45 21-80 3-80 3-48-17zm187-73l35-31 17-51 16-50-4-87-4-86-24-45-25-45-37-18-38-19-33 11c-44 15-73 46-92 101l-16 45v168l25 51 25 51 28 17 28 17 32 1h32l35-30zm-1964 56v-25l33-3 32-3v-440l-32-3-33-3v-51l193 4 192 3 52 24 53 23 34 38 34 37 13 39 13 39v140l-13 39-13 39-34 37-34 38-53 23-52 24-192 3-193 4v-26zm339-55l35-17 20-40 21-39v-200l-21-39-20-40-35-17c-19-9-53-20-76-23l-43-6v452l43-7c23-4 57-14 76-24zm466-60c-50-13-93-39-118-73-83-112-52-259 67-320l41-21 80 1h80l50 19 50 19 3 38 3 39-18-8c-44-18-109-35-135-35-60 0-118 51-118 105v25h269l5 9c4 5 1 32-5 60l-11 52-25 30c-14 16-38 36-53 44l-28 15-54 4-53 5-30-8zm95-66c6-8 14-32 17-55l6-40H987l6 40c3 23 11 47 17 55l12 15h66l12-15zm1428 49l-78-25v-39h50v-460h-50v-50h251l-3 23-3 22-27 3-28 3v126l73 5 72 5 40 20c50 26 80 57 100 105l15 37v106l-19 40-18 41-32 27-33 27-26 1c-55 2-78-3-124-26l-48-24v59h-17c-10-1-53-12-95-26zm220-86c7-6 20-24 28-39l14-28v-82l-14-32c-7-18-23-40-34-50l-20-19-41-5-41-6v270l8 7 7 8 40-7c21-3 45-11 53-17zm389 102c-72-18-117-66-117-124v-26l29-32 28-32 74-35 73-36 10-17 11-18-11-17c-6-9-21-20-35-23l-24-7-45 11-45 11-5 40-5 40-33 3-33 3 3-68 3-68 50-12c65-14 150-16 198-2l38 10 34 30 34 30 6 28 6 29-15 37-16 36-90 42-91 41-6 25-6 24 18 14c22 15 54 17 88 4l25-10 6-35 7-36h59v128l-42 6c-24 3-65 8-93 10l-50 5-38-9zm516-17l-73-25v-38h50v-277l-30-6-30-6v-41h260v39l-32 9-33 8-3 182-2 182-18-1c-9 0-50-12-89-26zm344 17c-72-18-117-66-117-124v-26l29-32 28-32 74-35 73-36 10-17 11-18-11-17c-6-9-21-20-35-23l-24-7-45 11-45 11-5 40-5 40-33 3-33 3 3-68 3-68 50-12c65-14 150-16 198-2l38 10 34 30 34 30 6 28 6 29-15 37-16 36-90 42-91 41-6 25-6 24 18 14c22 15 54 17 88 4l25-10 6-35 7-36h59v128l-42 6c-24 3-65 8-93 10l-50 5-38-9zm-2707-30v-20h51l13-32c7-18 39-99 70-180l58-148h103l72 178 71 177 26 3 26 3v39h-170v-40h40v-14c0-15-68-186-79-198l-7-8-37 101-37 101 6 9c3 5 14 9 25 9h19v40h-250v-20zM950 1489c-66-20-128-75-160-144l-20-40v-255h30v196l16 46 15 46 35 40 34 40 52 26 52 26h65l66 1-18 10c-11 6-44 13-75 15l-57 3-35-10zm3670-85v-81l-19-25-20-25-58-30c-76-41-174-70-298-88l-100-15h-330l-97 15c-53 8-110 17-125 20l-28 5 45-15c25-9 88-23 140-32l95-16h360l97 16c118 20 232 56 293 91l45 27 15 29 15 29v137l-15 20-14 19-1-81zm-3163-19c4-11 9-91 11-177l4-158h38v53c0 28-4 89-10 134l-9 83-21 42c-11 24-17 34-13 23zm3163-348v-44l-21-27c-46-59-182-112-360-141l-104-17h-360l-115 20c-63 12-116 19-118 18-4-4 114-32 193-46 33-6 119-13 190-16l130-7 124 12 124 12 92 24 92 23 60 31 61 30 21 28 22 27-3 55-3 54-12 5-13 4v-45zM1600 657V338l-29-29-29-29h-504l-503-1 20-12 20-12 450-3c248-2 474 0 504 3l54 7 23 23 24 24v627l-15 20-14 19-1-318zm3020 50v-45l-26-32-27-31-46-23c-64-33-169-64-281-83l-95-17h-380l-94 17c-112 21-133 15-29-7 114-25 231-36 368-36h125l106 14c134 18 218 40 296 77l61 29 27 31 26 32-3 55-3 55-12 5-13 4v-45zm6-294c-3-3-6-25-6-49v-42l-41-37c-50-44-106-70-224-100l-90-23-120-12-120-13-145 6-145 6-84 16c-46 9-85 14-88 12-7-7 121-35 217-46l84-11h301l100 15c114 17 219 46 286 80l46 24 27 31 26 32v107l-9 5c-4 3-11 3-15-1z"/></g><g fill="#0156b9" transform="matrix(.1 0 0 -.1 0 500)"><path d="M693 4736c-74-18-150-59-212-113l-54-47-39-60-38-60-20-64-20-64v-134l-32-16c-87-42-176-151-209-259l-19-61v-66c1-156 59-273 184-368l58-44 67-20 67-21 634 3 635 3 56 28 56 27 52 51 51 52 27 56 28 56v220l-34 63-34 63-54 49-53 49-53 20-52 20 4 13c2 7 11 38 19 69l16 56-12 54-13 54-33 46-34 46-53 27-53 26h-133l-49-25c-27-14-50-25-51-25-2 0-15 24-29 52l-27 53-56 55-57 55-60 32c-33 18-87 39-119 48l-59 15-71-1c-38 0-93-6-122-13zm451-525l188-188-4-19-3-19-123-3-122-3v-358l-17-17-17-16-101 4c-56 3-107 8-113 12l-12 7v368l-121 3-122 3-11 17-11 18 190 190c104 104 194 190 200 190s95-85 199-189zm3209-1428l-73-25v-28h60l-2-242-3-243-22-3-23-3v-39h230v35l-22 10-23 10v270l46 3 46 3 24-20 24-19 3-115 4-116-21-13-21-13v-35h220v39l-22 3-23 3-5 146-6 146-17 26c-9 14-27 32-39 38l-21 11-52-5-52-5-41-21c-23-12-44-21-47-21s-5 56-5 125v125l-22-1c-13 0-56-12-95-26zm-706-1l-17-19v-72l22-15 22-16h55l20 26 21 27v47l-20 20-20 20h-67l-16-18zm-194-18l-6-16 13-99 13-99h9c4 0 8 3 8 8 0 4 7 49 15 101l15 93-11 14c-6 8-20 14-31 14h-19l-6-16zm-1446-14c-48-13-86-32-127-67l-33-27-23-51-24-50v-70c0-89 13-134 53-187l33-43 54-30 55-30h190l45 24c59 30 107 76 133 126l20 40 5 76 4 76-20 45c-11 25-36 64-56 86l-37 40-46 22-47 22-70 4-71 3-38-9zm144-66l31-15 24-54 25-54v-159l-11-42-11-42-34-36-33-37h-90l-28 25c-35 33-62 94-70 161l-6 54 11 60 11 59 26 39 25 38 22 9c12 5 35 9 50 9l28 1 30-16zm-1949 45l3-24 30-5 30-5v-440l-30-5-30-5-3-24-4-23 189 5 188 5 36 11c20 6 55 25 78 42l43 30 25 56 25 55v146l-25 55-25 54-34 26c-19 15-54 34-79 43l-44 17-188 5-189 4 4-23zm328-51l45-23 24-47 23-48v-170l-23-47-24-48-32-18-31-18-51-6-51-6v453h76l44-22zm488-69l-48-7-35-22-35-22-26-44-26-45v-125l21-42 21-42 42-27 42-28 80-3 81-3 60 18 60 19 3 35 3 36-53-18-53-18-47-1h-46l-31 26-30 25-10 36c-6 20-8 40-5 45l5 8h269v66l-22 44-23 44-25 18-25 18-50 8-50 8-47-7zm77-64l25-24v-72l-67 3-68 3 4 30c4 41 18 65 44 75 32 13 36 12 62-15zm1418 42l-63-21v-36h60v-451l-30-10-30-11v-38h250v39l-27 3-28 3-3 70-3 70 69 1h68l47 23 47 23 25 29 24 30 12 42 11 42-5 53-6 52-22 36-22 36-31 19-31 19h-80l-52-25-53-24v49l-32-1c-18 0-61-10-95-22zm222-72l32-16 12-25 11-25v-100l-14-34-14-34-31-15c-16-9-44-16-61-16h-30v280h31c17 0 46-7 64-15zm358 75l-41-21-17-35-16-35 6-28 6-29 21-18c11-11 54-37 96-59l76-40 10-17 11-18-11-17c-6-10-22-22-36-27l-25-9-44 14-43 14-9 43-8 42h-49v-139l58-8c31-4 84-8 117-8h60l39 21c22 11 48 32 59 46l19 25v76l-26 26-26 26-71 30-72 30-13 20-14 21 16 22 15 22h79l20-20 20-20v-50h60v119l-12 7c-6 4-57 9-112 11l-101 4-42-21zm545-2l-58-20v-38h51l-3-142-3-143-27-3-28-3v-39h250v40h-18c-10 0-23 5-30 12l-12 12v346l-32-1c-18 0-59-10-90-21zm315 2l-41-21-17-35-16-35 6-28 6-29 21-18c11-11 54-37 96-59l76-40 10-17 11-18-11-17c-6-10-22-22-36-27l-25-9-44 14-43 14-9 43-8 42h-49v-139l58-8c31-4 84-8 117-8h60l39 21c22 11 48 32 59 46l19 25v76l-26 26-26 26-71 30-72 30-13 20-14 21 16 22 15 22h79l20-20 20-20v-50h60v119l-12 7c-6 4-57 9-112 11l-101 4-42-21zm-2653-10v-20h45l69-181 69-180 50 3 50 3 72 175 72 175 26 3 27 3v39h-170v-39l20-3c12-2 21-7 22-11 1-13-76-207-83-207-8 0-79 187-79 206v14h50v40h-240v-20z"/></g><g fill="#020202" transform="matrix(.1 0 0 -.1 0 500)"><path d="M4353 2783l-73-25v-28h60l-2-242-3-243-22-3-23-3v-39h230v35l-22 10-23 10v270l46 3 46 3 24-20 24-19 3-115 4-116-21-13-21-13v-35h220v39l-22 3-23 3-5 146-6 146-17 26c-9 14-27 32-39 38l-21 11-52-5-52-5-41-21c-23-12-44-21-47-21s-5 56-5 125v125l-22-1c-13 0-56-12-95-26zm-706-1l-17-19v-72l22-15 22-16h55l20 26 21 27v47l-20 20-20 20h-67l-16-18zm-194-18l-6-16 13-99 13-99h9c4 0 8 3 8 8 0 4 7 49 15 101l15 93-11 14c-6 8-20 14-31 14h-19l-6-16zm-1446-14c-48-13-86-32-127-67l-33-27-23-51-24-50v-70c0-89 13-134 53-187l33-43 54-30 55-30h190l45 24c59 30 107 76 133 126l20 40 5 76 4 76-20 45c-11 25-36 64-56 86l-37 40-46 22-47 22-70 4-71 3-38-9zm144-66l31-15 24-54 25-54v-159l-11-42-11-42-34-36-33-37h-90l-28 25c-35 33-62 94-70 161l-6 54 11 60 11 59 26 39 25 38 22 9c12 5 35 9 50 9l28 1 30-16zm-1949 45l3-24 30-5 30-5v-440l-30-5-30-5-3-24-4-23 189 5 188 5 36 11c20 6 55 25 78 42l43 30 25 56 25 55v146l-25 55-25 54-34 26c-19 15-54 34-79 43l-44 17-188 5-189 4 4-23zm328-51l45-23 24-47 23-48v-170l-23-47-24-48-32-18-31-18-51-6-51-6v453h76l44-22zm488-69l-48-7-35-22-35-22-26-44-26-45v-125l21-42 21-42 42-27 42-28 80-3 81-3 60 18 60 19 3 35 3 36-53-18-53-18-47-1h-46l-31 26-30 25-10 36c-6 20-8 40-5 45l5 8h269v66l-22 44-23 44-25 18-25 18-50 8-50 8-47-7zm77-64l25-24v-72l-67 3-68 3 4 30c4 41 18 65 44 75 32 13 36 12 62-15zm1418 42l-63-21v-36h60v-451l-30-10-30-11v-38h250v39l-27 3-28 3-3 70-3 70 69 1h68l47 23 47 23 25 29 24 30 12 42 11 42-5 53-6 52-22 36-22 36-31 19-31 19h-80l-52-25-53-24v49l-32-1c-18 0-61-10-95-22zm222-72l32-16 12-25 11-25v-100l-14-34-14-34-31-15c-16-9-44-16-61-16h-30v280h31c17 0 46-7 64-15zm358 75l-41-21-17-35-16-35 6-28 6-29 21-18c11-11 54-37 96-59l76-40 10-17 11-18-11-17c-6-10-22-22-36-27l-25-9-44 14-43 14-9 43-8 42h-49v-139l58-8c31-4 84-8 117-8h60l39 21c22 11 48 32 59 46l19 25v76l-26 26-26 26-71 30-72 30-13 20-14 21 16 22 15 22h79l20-20 20-20v-50h60v119l-12 7c-6 4-57 9-112 11l-101 4-42-21zm545-2l-58-20v-38h51l-3-142-3-143-27-3-28-3v-39h250v40h-18c-10 0-23 5-30 12l-12 12v346l-32-1c-18 0-59-10-90-21zm315 2l-41-21-17-35-16-35 6-28 6-29 21-18c11-11 54-37 96-59l76-40 10-17 11-18-11-17c-6-10-22-22-36-27l-25-9-44 14-43 14-9 43-8 42h-49v-139l58-8c31-4 84-8 117-8h60l39 21c22 11 48 32 59 46l19 25v76l-26 26-26 26-71 30-72 30-13 20-14 21 16 22 15 22h79l20-20 20-20v-50h60v119l-12 7c-6 4-57 9-112 11l-101 4-42-21zm-2653-10v-20h45l69-181 69-180 50 3 50 3 72 175 72 175 26 3 27 3v39h-170v-39l20-3c12-2 21-7 22-11 1-13-76-207-83-207-8 0-79 187-79 206v14h50v40h-240v-20z"/></g></g></svg>