<svg id="Layer_1" data-name="Layer 1" xmlns="http://www.w3.org/2000/svg" viewBox="0 0 677 266"><title>Artboard 1</title><path d="M41.78,138.42,19.33,182.19a11.3,11.3,0,0,1-9.95,5.4C4.55,187.59,0,185,0,179.06a9.47,9.47,0,0,1,1.42-4.55,33.79,33.79,0,0,1,2.27-4c1.43-3.69,4-8.24,7.11-14.21,5.68-11.65,13.64-26.71,21.6-42.35,16.2-30.69,33-62.81,35.24-67.92a10.49,10.49,0,0,1,8.81-4.84c3.13,0,7.11,1.42,8.82,4.84,2.55,5.11,19.32,37.23,35.52,67.92,8,15.64,15.92,30.7,21.89,42.35,2.84,6,5.11,10.52,6.82,14.21a32.4,32.4,0,0,1,2.27,4,9.47,9.47,0,0,1,1.42,4.55c0,6.54-4.83,8.53-9.66,8.53a10.52,10.52,0,0,1-9.66-5.4l-22.46-43.77ZM76.45,71.34l-25,48.32h50.31Z"/><path d="M558.78,41.21C600,41.21,633,75.89,633,114.26c0,40.64-34.11,73.33-76.17,73.33-41.78,0-75.89-32.69-75.89-73.33C480.9,71.91,516.43,41.21,558.78,41.21Zm-2,127.9c31,0,56.56-24.73,56.56-54.85,0-29.85-25.58-54.29-56.56-54.29s-56.28,24.44-56.28,54.29C500.51,144.38,525.81,169.11,556.79,169.11Z"/><path d="M248.12,187.3c34.11-3.41,60.54-31.83,60.54-65.08V106.3c0-36.1-30.69-65.09-68.21-65.09H183.89c-6.25,0-10.8,4.27-10.8,10.24a9.09,9.09,0,0,0,9.1,9.09h58.26c26.72,0,48.6,20.18,48.6,45.76v15.92c0,25.58-22.17,46.89-48.6,46.89h-48V117.18h0v-.58h0a9.65,9.65,0,0,0-19.27,0h0v60.75c0,5.69,4.55,10.24,10.8,10.24"/><path d="M403.59,187.3c34.11-3.41,60.54-31.83,60.54-65.08V106.3c0-36.1-30.69-65.09-68.21-65.09H339.36c-6.25,0-10.8,4.27-10.8,10.24a9.09,9.09,0,0,0,9.09,9.09h58.27c26.71,0,48.6,20.18,48.6,45.76v15.92c0,25.58-22.17,46.89-48.6,46.89h-48V116.6h0a9.65,9.65,0,0,0-19.27,0h0v.58h0v60.17c0,5.69,4.55,10.24,10.8,10.24"/><path d="M645.75,75.38a7,7,0,0,1-6.6-4.74,55.69,55.69,0,0,0-28.59-32.22,7,7,0,1,1,6-12.57,69.65,69.65,0,0,1,35.78,40.33,7,7,0,0,1-6.6,9.2Z"/><path d="M670,65.6A7,7,0,0,1,663.47,61,81.8,81.8,0,0,0,619,13.52,7,7,0,1,1,624.47.73a95.73,95.73,0,0,1,52.12,55.56,7,7,0,0,1-4.22,8.9A6.83,6.83,0,0,1,670,65.6Z"/><path d="M91.49,263.86a2.61,2.61,0,0,1-5,1l-3-7.7H62.38l-3,7.7a2.49,2.49,0,0,1-2.4,1.66,2.62,2.62,0,0,1-2.65-2.59,3.72,3.72,0,0,1,.25-1L68.78,227.8A4.51,4.51,0,0,1,73,225a4.35,4.35,0,0,1,4.12,2.83l14.22,35.08A5.45,5.45,0,0,1,91.49,263.86ZM81.77,252.6,73,229.77l-8.8,22.83Z"/><path d="M99.37,263.55V227.49A2.55,2.55,0,0,1,102,225a2.58,2.58,0,0,1,2.53,2.52v34.22h17a2.28,2.28,0,1,1,0,4.55H102.08A2.46,2.46,0,0,1,99.37,263.55Z"/><path d="M132.11,263.55V227.49a2.54,2.54,0,0,1,2.58-2.52,2.58,2.58,0,0,1,2.52,2.52v34.22h17a2.28,2.28,0,1,1,0,4.55H134.81A2.46,2.46,0,0,1,132.11,263.55Z"/><path d="M182.08,263.55V227.92a2.46,2.46,0,0,1,2.7-2.71h11.33c12.74,0,21,8.93,21,20.56s-8.3,20.49-21,20.49H184.78A2.46,2.46,0,0,1,182.08,263.55Zm14-1.84c10,0,15.75-7.14,15.75-15.94s-5.6-16-15.75-16h-8.93v31.94Z"/><path d="M260.48,263.86a2.62,2.62,0,0,1-5.05,1l-3-7.7H231.37l-3,7.7a2.5,2.5,0,0,1-2.4,1.66,2.62,2.62,0,0,1-2.65-2.59,3.4,3.4,0,0,1,.25-1l14.15-35.08A4.51,4.51,0,0,1,242,225a4.37,4.37,0,0,1,4.13,2.83l14.21,35.08A5.47,5.47,0,0,1,260.48,263.86Zm-9.73-11.26L242,229.77l-8.8,22.83Z"/><path d="M299.12,228.78,285.4,248.91V264a2.59,2.59,0,0,1-2.58,2.53,2.54,2.54,0,0,1-2.53-2.53V248.91l-13.78-20.06a2.28,2.28,0,0,1-.43-1.42,2.47,2.47,0,0,1,2.46-2.46,2.34,2.34,0,0,1,2.09,1.11l12.19,18.27,12.12-18.27A2.56,2.56,0,0,1,297,225a2.52,2.52,0,0,1,2.52,2.46A2.49,2.49,0,0,1,299.12,228.78Z"/><path d="M325.46,263.55V227.92a2.47,2.47,0,0,1,2.71-2.71h11.32c12.74,0,21.05,8.93,21.05,20.56s-8.31,20.49-21.05,20.49H328.17A2.46,2.46,0,0,1,325.46,263.55Zm14-1.84c10,0,15.76-7.14,15.76-15.94s-5.6-16-15.76-16h-8.92v31.94Z"/><path d="M369.89,263.55V227.92a2.47,2.47,0,0,1,2.71-2.71h22.16a2.28,2.28,0,1,1,0,4.56H375V243h19.32a2.28,2.28,0,1,1,0,4.55H375v14.16h19.76a2.28,2.28,0,1,1,0,4.55H372.6A2.46,2.46,0,0,1,369.89,263.55Z"/><path d="M417.52,263.68l-14.09-35a1.85,1.85,0,0,1-.24-1,2.71,2.71,0,0,1,5.23-1l13.29,34,13.29-34a2.62,2.62,0,0,1,2.52-1.72,2.73,2.73,0,0,1,2.71,2.71,2.67,2.67,0,0,1-.24,1l-14.1,35a4.51,4.51,0,0,1-8.37,0Z"/><path d="M466.82,224.54c12.12,0,20.37,9.11,20.37,21.23S478.94,267,466.82,267s-20.37-9.11-20.37-21.23S454.63,224.54,466.82,224.54Zm0,4.55c-9.23,0-15.08,7.08-15.08,16.68s5.85,16.68,15.08,16.68,15.07-7.14,15.07-16.68S476,229.09,466.82,229.09Z"/><path d="M496.54,264V227.92a2.47,2.47,0,0,1,2.71-2.71H513c8.25,0,12.87,5.67,12.87,12.37S521.16,250,513,250H501.65v14a2.56,2.56,0,0,1-5.11,0Zm15.88-34.21H501.65V245.4h10.77c4.86,0,8.18-3.2,8.18-7.82S517.28,229.77,512.42,229.77Z"/><path d="M532.23,260.11a2.49,2.49,0,0,1,2.46-2.53,2.25,2.25,0,0,1,1.54.56,17,17,0,0,0,11.27,4.31c7.32,0,9.66-3.94,9.66-7.08,0-4.92-5-6.28-10.4-7.76-6.59-1.72-13.91-3.57-13.91-11.63,0-6.77,6-11.38,14.46-11.38A19.58,19.58,0,0,1,560,228.85a2.29,2.29,0,0,1,1,2,2.5,2.5,0,0,1-2.4,2.47,2.26,2.26,0,0,1-1.47-.56,15.83,15.83,0,0,0-10.22-3.57c-5.29,0-8.8,2.65-8.8,6.53,0,4.12,4.74,5.35,10,6.77,6.71,1.78,14.34,3.87,14.34,12.49,0,6-4.06,12.06-15.14,12.06a20.72,20.72,0,0,1-14.15-5A2.55,2.55,0,0,1,532.23,260.11Z"/></svg>