<?xml version="1.0" encoding="UTF-8"?>
<svg width="1920px" height="443px" viewBox="0 0 1920 443" xmlns="http://www.w3.org/2000/svg" xmlns:xlink="http://www.w3.org/1999/xlink" version="1.1">
 <!-- Generated by Pixelmator Pro 2.0.1 -->
 <path id="Path" d="M50.215 437.093 C33.387 437.34 16.67 434.332 0.985 428.233 L0.985 402.638 C16.979 407.736 33.49 411.038 50.215 412.482 65.969 412.482 82.708 409.529 82.708 389.84 82.708 375.073 71.877 371.136 58.092 367.198 L44.308 364.244 C27.569 359.322 -0 352.431 -0 318.96 -0 281.551 30.523 272.691 62.031 272.691 77.292 272.112 92.474 275.148 106.338 281.551 L106.338 306.162 C92.044 299.907 76.648 296.561 61.046 296.318 41.354 296.318 28.554 300.256 28.554 316.991 28.554 331.758 40.369 335.696 54.154 338.649 L68.923 343.571 C87.631 348.493 110.277 359.322 110.277 388.856 111.262 426.264 83.692 437.093 50.215 437.093 M217.6 437.093 C247.138 437.093 291.446 428.233 291.446 354.4 291.446 281.551 246.154 271.707 217.6 271.707 187.077 271.707 143.754 283.52 143.754 354.4 143.754 427.249 186.092 437.093 217.6 437.093 M217.6 294.349 C234.338 294.349 261.908 298.287 261.908 354.4 261.908 408.544 232.369 414.451 217.6 414.451 205.785 414.451 173.292 410.513 173.292 354.4 173.292 299.271 200.862 294.349 217.6 294.349 M329.846 434.14 L359.385 434.14 359.385 222.484 329.846 222.484 Z M533.662 434.14 L533.662 326.836 C533.662 285.489 510.031 272.691 474.585 272.691 454.1 272.924 433.799 276.584 414.523 283.52 L414.523 308.131 C432.301 301.944 450.864 298.298 469.661 297.302 490.338 297.302 502.154 302.224 502.154 322.898 L502.154 336.68 466.708 336.68 C441.108 336.68 399.754 345.54 399.754 388.856 399.754 429.218 426.338 438.078 450.954 438.078 470.92 437.991 489.902 429.396 503.139 414.451 L506.092 435.124 Z M504.123 392.793 C504.123 392.793 482.462 413.467 460.8 413.467 445.046 413.467 432.246 407.56 432.246 386.887 432.246 361.291 448 354.4 475.569 353.416 L504.123 353.416 Z M641.969 299.271 C650.43 299.15 658.821 300.828 666.585 304.193 L666.585 276.629 C659.839 273.427 652.365 272.068 644.923 272.691 628.7 272.838 614.065 282.465 607.508 297.302 L603.569 275.644 580.923 275.644 580.923 434.14 610.462 434.14 610.462 317.976 C610.462 317.976 624.246 299.271 641.969 299.271 M945.231 274.66 L911.754 274.66 893.046 366.213 C888.123 389.84 883.2 420.358 883.2 420.358 883.2 420.358 876.308 386.887 870.4 366.213 L842.831 274.66 799.508 274.66 771.938 366.213 C766.031 386.887 759.138 420.358 759.138 420.358 759.138 420.358 754.215 387.871 749.292 366.213 L729.6 274.66 695.138 274.66 738.462 434.14 779.815 434.14 804.431 349.478 C810.339 327.82 821.169 290.411 821.169 290.411 821.169 290.411 831.015 327.82 836.923 350.462 L861.538 435.124 902.892 435.124 Z M982.646 434.14 L1012.185 434.14 1012.185 273.676 982.646 273.676 Z M1200.246 434.14 L1200.246 325.851 C1200.246 285.489 1177.6 272.691 1149.046 272.691 1126.685 274.096 1105.484 283.131 1088.984 298.287 L1083.077 275.644 1060.431 275.644 1060.431 434.14 1089.969 434.14 1089.969 317.976 C1105.153 306.613 1123.247 299.786 1142.154 298.287 1162.831 298.287 1170.708 306.162 1170.708 325.851 L1170.708 434.14 Z M1379.446 434.14 L1379.446 222.484 1349.908 222.484 1349.908 287.458 C1338.531 276.66 1323.239 270.971 1307.569 271.707 1285.908 271.707 1235.692 281.551 1235.692 354.4 1235.692 425.28 1277.046 437.093 1301.661 437.093 1321.263 437.617 1340.062 429.304 1352.862 414.451 L1355.816 434.14 Z M1349.908 394.762 C1338.114 405.294 1323.299 411.839 1307.569 413.467 1288.862 413.467 1265.231 407.56 1265.231 354.4 1265.231 304.193 1287.877 296.318 1310.523 296.318 1325.069 296.901 1338.972 302.462 1349.908 312.069 Z M1472 437.093 C1505.477 437.093 1532.062 427.249 1532.062 388.856 1532.062 359.322 1508.431 348.493 1490.708 343.571 L1474.954 339.633 C1461.169 335.696 1449.354 332.742 1449.354 317.976 1449.354 301.24 1462.154 297.302 1481.846 297.302 1497.448 297.545 1512.844 300.892 1527.139 307.147 L1527.139 282.536 C1513.274 276.133 1498.092 273.097 1482.831 273.676 1451.323 273.676 1420.8 282.536 1420.8 319.944 1420.8 353.416 1448.369 360.307 1465.108 365.229 L1477.908 369.167 C1491.692 373.104 1502.523 376.058 1502.523 391.809 1502.523 411.498 1486.769 414.451 1470.031 414.451 1453.306 413.006 1436.794 409.705 1420.8 404.607 L1420.8 430.202 C1421.785 428.233 1442.462 437.093 1472 437.093" fill="#444444" fill-opacity="1" stroke="none"/>
 <path id="Path-1" d="M1671.877 178.184 C1650.215 184.091 1628.554 189.013 1606.892 195.904 1562.262 155.706 1506.114 130.564 1446.4 124.04 1534.82 60.556 1640.806 26.151 1749.662 25.595 L1712.246 60.051 C1712.246 60.051 1870.769 54.144 1910.154 0 1908.969 5.703 1907.322 11.3 1905.231 16.736 1893.949 48.898 1873.812 77.221 1847.139 98.444 1822.231 117.923 1794.724 133.828 1765.416 145.698 1736.267 158.414 1706.341 169.264 1675.816 178.184 1674.831 177.2 1672.862 178.184 1671.877 178.184 M1920 173.262 C1819.475 168.707 1718.91 181.359 1622.646 210.671 1642.988 231.896 1659.926 256.137 1672.862 282.536 1752.616 238.236 1862.893 181.138 1920 173.262 M1682.708 305.178 C1692.181 329.477 1698.149 355 1700.431 380.98 L1839.262 238.236 Z M1757.539 379.996 C1763.941 379.482 1768.77 373.964 1768.428 367.551 1768.085 361.138 1762.697 356.165 1756.276 356.336 1749.855 356.507 1744.739 361.76 1744.739 368.182 1744.668 371.512 1746.029 374.713 1748.477 376.972 1750.925 379.231 1754.224 380.332 1757.539 379.996 M1757.539 359.322 C1760.041 359.101 1762.523 359.93 1764.39 361.61 1766.257 363.29 1767.342 365.671 1767.385 368.182 1767.385 375.073 1762.462 377.042 1757.539 377.042 1755.036 377.263 1752.555 376.435 1750.687 374.754 1748.82 373.074 1747.735 370.694 1747.693 368.182 1747.693 361.291 1752.616 359.322 1757.539 359.322 M1762.462 374.089 L1761.477 371.136 C1761.477 370.151 1760.493 369.167 1759.508 368.182 1760.493 367.198 1761.477 367.198 1761.477 365.229 1761.477 362.276 1758.523 361.291 1756.554 361.291 L1752.616 361.291 1752.616 374.089 1755.57 374.089 1755.57 369.167 1757.539 369.167 C1758.523 369.167 1758.523 371.136 1758.523 372.12 L1759.508 374.089 Z M1757.539 364.244 C1759.508 364.244 1759.508 364.244 1759.508 366.213 1759.508 367.198 1758.523 368.182 1755.57 368.182 L1755.57 364.244 Z" fill="#f99d1c" fill-opacity="1" stroke="none"/>
</svg>
