<svg enable-background="new 0 0 600 340" viewBox="0 0 600 340" xmlns="http://www.w3.org/2000/svg"><path d="m158.9 167.9c0 3-.9 5.3-2.6 6.9s-4.2 2.4-7.4 2.4h-5.2v-18.3h5.8c3 0 5.3.8 7 2.4 1.6 1.6 2.4 3.8 2.4 6.6zm-4 .1c0-3.9-1.7-5.9-5.2-5.9h-2.1v11.9h1.7c3.7 0 5.6-2 5.6-6z" fill="#353535"/><path d="m175.2 177.2h-10.5v-18.3h10.5v3.2h-6.7v4h6.2v3.2h-6.2v4.7h6.7z" fill="#353535"/><path d="m191.4 158.9h3.9l-6.2 18.3h-4.2l-6.2-18.3h3.9l3.4 10.9c.2.6.4 1.4.6 2.2.2.9.3 1.5.4 1.8.1-.8.4-2.1.9-4z" fill="#353535"/><path d="m421.4 168.1c0 3-.8 5.4-2.3 7s-3.7 2.4-6.5 2.4-5-.8-6.5-2.4-2.3-4-2.3-7 .8-5.4 2.3-7 3.7-2.4 6.5-2.4 5 .8 6.5 2.4 2.3 3.9 2.3 7zm-13.4 0c0 2 .4 3.6 1.2 4.6s1.9 1.6 3.5 1.6c3.1 0 4.6-2.1 4.6-6.2s-1.5-6.2-4.6-6.2c-1.5 0-2.7.5-3.5 1.6-.8 1-1.2 2.5-1.2 4.6z" fill="#353535"/><path d="m439.8 164.6c0 2-.6 3.5-1.8 4.5s-3 1.6-5.3 1.6h-1.7v6.5h-3.9v-18.3h5.9c2.2 0 3.9.5 5.1 1.4 1.1 1 1.7 2.4 1.7 4.3zm-8.8 2.9h1.3c1.2 0 2.1-.2 2.7-.7s.9-1.2.9-2.1-.2-1.6-.7-2-1.3-.7-2.3-.7h-1.9z" fill="#353535"/><path d="m456 172.1c0 1.7-.6 3-1.8 3.9-1.2 1-2.8 1.4-5 1.4-2 0-3.7-.4-5.2-1.1v-3.6c1.2.6 2.3.9 3.1 1.2.9.2 1.6.3 2.3.3.9 0 1.5-.2 2-.5s.7-.8.7-1.5c0-.4-.1-.7-.3-1s-.5-.5-.9-.8-1.2-.7-2.4-1.2c-1.1-.5-2-1-2.5-1.5s-1-1-1.3-1.7c-.3-.6-.5-1.4-.5-2.3 0-1.6.5-2.9 1.6-3.8s2.6-1.4 4.6-1.4c1 0 1.9.1 2.7.3.9.2 1.8.5 2.7 1l-1.3 3c-1-.4-1.8-.7-2.4-.8-.6-.2-1.3-.2-1.9-.2-.7 0-1.3.2-1.7.5s-.6.8-.6 1.3c0 .3.1.6.2.9.2.3.4.5.8.7.3.2 1.2.7 2.5 1.3 1.7.8 2.9 1.6 3.5 2.5s1.1 2 1.1 3.1z" fill="#353535"/><path d="m180.2 75.6c47.4 5.4 84.2 45.6 84.2 94.4 0-38.8 13.3-74.6 35.6-102.9-28.4-36-71.3-59.9-119.8-63.1l-13.9 35.8z" fill="#19838e"/><path d="m159.3 264.5c-47.8-5-85-45.4-85-94.5 0-.5 0-1.1 0-1.6l-35.2 13.7-36.1-14v1.9c0 88.6 69.3 161 156.6 166l13.7-35.4z" fill="#3737aa"/><path d="m335.7 173.5c0-1.2-.1-2.3-.1-3.5v3.5z" fill="#353535"/><path d="m74.7 161.1c4.5-48.3 45.1-86.2 94.6-86.2 1.2 0 2.3 0 3.5.1l-13.7-35.2 14-36.1c-1.3 0-2.6 0-3.8 0-88.8 0-161.4 69.6-166.1 157.3l35.9 13.9z" fill="#8b9b29"/><path d="m266 180.3-1.3.5z" fill="none"/><path d="m264.7 180.8v-.1z" fill="#3fa9f5"/><path d="m335.3 180.5-34.8-13.5-34 13.2-.5.2-1.3.5v.1l-1 .4c-5.6 47.2-45.7 83.8-94.4 83.8-.9 0-1.8 0-2.7 0l13.8 35.7-13.8 35.6h2.7c53 0 100.2-24.8 130.7-63.4v-.1c20.3-25.9 33.1-57.8 35.3-92.5z" fill="#3fa9f5"/><path d="m264.4 173.9c0-.1 0 0 0 0z" fill="#f15a24"/><path d="m458.8 6.1c-9.2-1.6-18.6-2.4-28.1-2.4-53 0-100.2 24.8-130.7 63.4-22.3 28.3-35.6 64-35.6 102.9v3.8l36.1-14 35.1 13.6c0-1.2 0-2.3 0-3.5 0-52.5 42.6-95 95-95 4.3 0 8.5.3 12.7.8l21.1-31.3z" fill="#f15a24"/><path d="m594.5 198.8c1.6-9.4 2.5-19 2.5-28.8 0-79.8-56.2-146.5-131.3-162.6l5.7 38.7-20.9 31c43 9.1 75.2 47.3 75.2 93 0 4.2-.3 8.4-.8 12.5l32.2 21.8z" fill="#9263ab"/><path d="m523.7 189.7c-9.1 43-47.3 75.4-93 75.4-4.2 0-8.3-.3-12.4-.8l-21.9 32.7 5.6 36.9c9.3 1.6 18.9 2.5 28.7 2.5 79.6 0 146.1-55.9 162.5-130.6l-37.6 5.5z" fill="#aa2e2e"/><path d="m411.1 263c-39.7-8.3-70.2-41.3-74.9-82.2l-.9-.4c-2.2 34.8-15 66.7-35.3 92.4 23.4 29.7 56.8 51.2 95 59.6l-5.6-37.1z" fill="#19838e"/><g fill="#fff"><path d="m327.8 94.9 3.1 2.3-1.3 1.7-8.2-6.1 1.8-2.4c.8-1.1 1.6-1.8 2.4-2s1.6 0 2.4.6c.5.4.8.8 1 1.4.2.5.2 1.1 0 1.8 2.8.1 4.5.2 5.4.3l-1.4 1.9-4.6-.4zm-1.4-1.1.4-.6c.4-.5.6-1 .6-1.4s-.2-.7-.6-1-.8-.4-1.1-.2c-.4.1-.8.5-1.2 1.1l-.4.5z"/><path d="m339.8 86.4-3.9 4.4-7.7-6.7 3.9-4.4 1.3 1.2-2.4 2.8 1.7 1.5 2.3-2.6 1.3 1.2-2.3 2.6 2 1.7 2.4-2.8z"/><path d="m341.9 84.2-7.2-7.3 1.5-1.5 5.9 6 2.9-2.9 1.3 1.3z"/><path d="m352.9 74.2-4.5 3.8-6.6-7.8 4.5-3.8 1.2 1.3-2.8 2.4 1.5 1.7 2.6-2.2 1.2 1.3-2.6 2.2 1.7 2 2.8-2.4z"/><path d="m360.3 68.6-2-1.5-3 2.2.8 2.4-1.9 1.4-3.1-10.4 2.1-1.6 8.9 6.2zm-3.5-2.7c-1.8-1.4-2.9-2.2-3.1-2.3-.2-.2-.4-.3-.6-.4.2.6.7 2 1.5 4.3z"/><path d="m367.6 60.6c.5.8.6 1.6.3 2.4s-.9 1.5-1.9 2.1c-.9.6-1.9.9-2.8 1l-1-1.7c.7-.1 1.4-.2 1.8-.4.5-.1.9-.3 1.2-.5.4-.2.7-.5.8-.8s.1-.6-.1-.9c-.1-.2-.2-.3-.4-.4s-.4-.1-.7-.1-.8 0-1.5.1-1.2.1-1.6 0-.8-.2-1.1-.4-.6-.5-.9-.9c-.5-.8-.6-1.5-.3-2.3s.8-1.4 1.8-2c.5-.3.9-.5 1.4-.6s1-.3 1.6-.3l.3 1.8c-.6.1-1 .2-1.4.3-.3.1-.7.3-1 .4-.3.2-.6.5-.7.7-.1.3-.1.5.1.8.1.2.2.3.4.4s.3.1.6.1.7 0 1.5-.1c1.1-.1 1.8-.1 2.4.1.5.2.9.6 1.2 1.2z"/><path d="m376.8 58.9-5.2 2.7-4.7-9.1 5.2-2.7.8 1.6-3.3 1.7 1 2 3.1-1.6.8 1.6-3.1 1.6 1.2 2.3 3.3-1.7z"/><path d="m233.1 56.1c-.5 1-1.2 1.6-2.1 1.8s-1.9 0-3-.6l-.8-.4-1.7 3.2-1.9-1 4.7-9 2.9 1.5c1.1.6 1.8 1.2 2.1 2 .3.7.2 1.6-.2 2.5zm-5.1-.8.6.3c.6.3 1.1.4 1.5.3s.7-.3 1-.8c.2-.5.3-.8.2-1.2-.1-.3-.5-.6-1-.9l-.9-.5z"/><path d="m232.2 63.8 5.4-8.7 1.8 1.1-4.4 7.1 3.5 2.2-.9 1.5z"/><path d="m244.8 72.3.8-2.4-3-2.2-2 1.5-1.9-1.4 9-6.1 2.1 1.6-3.2 10.4zm1.5-4.2c.8-2.2 1.2-3.4 1.3-3.7s.2-.5.3-.7c-.5.4-1.7 1.3-3.7 2.8z"/><path d="m255.1 81.1-2-1.8 1.8-8.7c-.8 1.1-1.5 1.8-1.8 2.3l-3.2 3.6-1.4-1.3 6.8-7.6 2 1.8-1.8 8.6c.8-1 1.4-1.8 1.8-2.2l3.2-3.6 1.4 1.3z"/><path d="m55.7 102.8c-.4.7-.5 1.4-.2 2.1s.9 1.3 1.9 1.9c2 1.1 3.4 1 4.2-.5.4-.6.6-1.5.8-2.5l1.6.9c-.1.9-.4 1.8-1 2.7-.7 1.3-1.7 2-2.9 2.3-1.2.2-2.5-.1-3.9-.9-.9-.5-1.6-1.2-2.1-1.9s-.7-1.5-.8-2.4c0-.8.2-1.7.7-2.5.5-.9 1.2-1.6 2.1-2.2l1.2 1.5c-.3.2-.7.5-1 .8-.1.1-.4.4-.6.7z"/><path d="m64.1 98.3 3.2 2.2-1.2 1.8-8.4-5.8 1.7-2.4c.8-1.1 1.6-1.8 2.4-2.1s1.6-.1 2.5.5c.5.3.8.8 1 1.3s.2 1.1.1 1.8c2.8.1 4.5.1 5.4.1l-1.4 2-4.6-.2zm-1.4-1 .4-.6c.4-.6.6-1 .6-1.4s-.2-.7-.6-1-.8-.3-1.1-.2c-.4.2-.7.5-1.1 1.1l-.4.5z"/><path d="m75.8 89.4-3.7 4.5-7.9-6.5 3.7-4.5 1.4 1.1-2.3 2.9 1.7 1.4 2.2-2.7 1.4 1.1-2.2 2.7 2 1.7 2.3-2.9z"/><path d="m82.1 82.6-2.3-1.1-2.6 2.7 1.2 2.2-1.6 1.7-4.8-9.7 1.8-1.9 9.9 4.5zm-3.9-2c-2.1-1-3.2-1.6-3.5-1.8-.3-.1-.5-.3-.6-.3.3.5 1.1 1.9 2.3 4z"/><path d="m88.3 76.9-1.6 1.4-5.6-6.3-2.1 1.9-1.2-1.3 5.8-5.1 1.2 1.3-2.1 1.8z"/><path d="m97 70-4.7 3.6-6.2-8.1 4.7-3.6 1.1 1.4-3 2.3 1.4 1.8 2.7-2.1 1.1 1.4-2.7 2.1 1.6 2.1 3-2.3z"/><path d="m68.4 241.5 1.2 1.8-10.4 2.9-1.3-1.9 6.5-8.6 1.2 1.8-3.9 5c-.2.3-.5.6-.8 1s-.6.6-.7.7c.4-.2 1.1-.5 2.2-.8z"/><path d="m66.6 255.9-3.7-4.6 8-6.4 3.7 4.6-1.4 1.1-2.3-2.9-1.8 1.4 2.2 2.7-1.4 1.1-2.2-2.7-2.1 1.6 2.3 2.9z"/><path d="m73.3 257.6-2.9 2.7-1.5-1.6 7.5-6.9 2 2.2c.9 1 1.5 1.9 1.5 2.8.1.8-.3 1.6-1 2.3-.4.4-.9.7-1.5.7-.6.1-1.2 0-1.8-.3-.6 2.7-1 4.4-1.2 5.2l-1.6-1.8 1.2-4.4zm1.3-1.2.5.5c.5.5.9.8 1.3.9s.8 0 1.1-.4c.4-.3.5-.7.4-1.1s-.4-.8-.8-1.3l-.4-.5z"/><path d="m76.5 266.5 7-7.4 1.6 1.5-7 7.4z"/><path d="m82.7 272.1-1.6-1.4 6.6-7.8 4.5 3.8-1.1 1.4-2.8-2.4-1.7 2 2.6 2.2-1.1 1.3-2.6-2.2z"/><path d="m94.4 273.6 4.2-2.2 1.9 1.4-6.4 3.1-2.3 3.2-1.7-1.3 2.3-3.2 1-7.1 1.9 1.4z"/><path d="m464.4 299.4-4.5-7.1h-.1c.5 1.5.8 2.6 1 3.1l1.2 4.6-1.9.5-2.7-9.8 2.8-.8 4.4 6.9.4-8.2 2.8-.8 2.7 9.8-1.9.5-1.3-4.7c-.1-.2-.1-.5-.2-.8s-.2-1.1-.5-2.3h-.1l-.5 8.4z"/><path d="m481.6 288.2c.6 1.6.7 2.9.2 4.1-.5 1.1-1.4 2-2.9 2.6s-2.7.6-3.8 0c-1.1-.5-2-1.6-2.6-3.2s-.7-2.9-.2-4.1c.5-1.1 1.4-2 2.9-2.6s2.7-.6 3.8 0 1.9 1.6 2.6 3.2zm-7 2.7c.4 1.1.9 1.8 1.5 2.2s1.3.4 2.1.1c1.6-.6 2-2 1.2-4.1s-2-2.9-3.6-2.3c-.8.3-1.3.8-1.5 1.5-.2.6-.1 1.5.3 2.6z"/><path d="m495 287.3-2.5 1.2-7.4-4.9h-.1c.7 1.2 1.2 2 1.4 2.5l2.2 4.3-1.7.9-4.6-9.1 2.4-1.2 7.4 4.8c-.7-1.2-1.1-2-1.4-2.5l-2.2-4.3 1.7-.9z"/><path d="m498.5 285.3-5.2-8.8 1.9-1.1 5.2 8.8z"/><path d="m507 279.8-1.8 1.2-4.7-6.9-2.3 1.6-1-1.5 6.4-4.3 1 1.5-2.3 1.6z"/><path d="m515.8 266.6c1.1 1.3 1.6 2.6 1.5 3.8s-.7 2.3-1.9 3.3-2.4 1.4-3.6 1.2-2.4-.9-3.4-2.2c-1.1-1.3-1.6-2.6-1.5-3.8s.7-2.3 1.9-3.3 2.4-1.4 3.6-1.2c1.2.1 2.3.8 3.4 2.2zm-5.8 4.7c.7.9 1.4 1.4 2.1 1.6s1.4 0 2-.6c1.3-1.1 1.3-2.5-.2-4.3s-2.8-2.1-4.2-1c-.7.5-1 1.2-1 1.9.2.7.6 1.5 1.3 2.4z"/><path d="m520.6 263.7 2.7 2.8-1.5 1.5-7.1-7.3 2.1-2.1c1-1 1.9-1.5 2.7-1.6s1.6.2 2.3.9c.4.4.7.9.8 1.5s0 1.2-.2 1.8c2.7.6 4.5.9 5.3 1.1l-1.7 1.7-4.5-1.1zm-1.2-1.3.5-.5c.5-.5.8-.9.8-1.3.1-.4-.1-.8-.4-1.1s-.7-.5-1.1-.4-.8.4-1.3.9l-.5.5z"/><path d="m235 279.1c.5 1 .6 1.9.3 2.7s-1.1 1.5-2.2 2.1l-.8.4 1.7 3.2-1.9 1-4.8-9 2.9-1.5c1.1-.6 2-.8 2.9-.6.7.2 1.4.7 1.9 1.7zm-3.6 3.7.6-.3c.6-.3 1-.7 1.1-1 .2-.4.1-.8-.1-1.2s-.5-.7-.9-.8-.8 0-1.3.3l-.9.5z"/><path d="m246.6 280.1-1.9-1.6-3.1 2 .7 2.4-2 1.3-2.6-10.6 2.2-1.4 8.6 6.6zm-3.4-2.9c-1.8-1.5-2.8-2.3-3-2.5s-.4-.4-.5-.5c.2.6.6 2.1 1.3 4.4z"/><path d="m249 267.7c-.6.5-1 1.1-.9 1.9 0 .8.4 1.6 1 2.4 1.4 1.8 2.8 2.2 4.1 1.1.6-.4 1.1-1.1 1.7-2l1.1 1.4c-.4.8-1.1 1.5-1.9 2.1-1.2.9-2.3 1.3-3.5 1-1.2-.2-2.3-1-3.3-2.3-.7-.8-1.1-1.7-1.3-2.6s-.1-1.7.2-2.5.8-1.5 1.6-2.1 1.7-1 2.8-1.3l.5 1.8c-.4.1-.8.2-1.2.3-.3.4-.6.5-.9.8z"/><path d="m265.2 264.8-1.8 1.7-4.9-1.3-.2 1.1 2.5 2.7-1.6 1.5-6.9-7.5 1.6-1.5 3.2 3.4-.2-1.5-.3-4.4 1.8-1.6.5 5.7z"/><path d="m271.4 258-2.3-1.1-2.5 2.8 1.3 2.2-1.6 1.7-5.2-9.5 1.8-2 10 4.2zm-4-1.9c-2.1-1-3.3-1.5-3.5-1.6-.3-.1-.5-.2-.6-.3.3.5 1.1 1.8 2.4 3.9z"/><path d="m272.6 247.5 2.4-3.2 4.2 3.2c-.2.7-.5 1.2-.8 1.8-.3.5-.6 1-1 1.5-.9 1.2-2 1.9-3.2 2s-2.5-.4-3.8-1.4-2.1-2.1-2.2-3.4c-.2-1.3.2-2.6 1.2-4 .6-.8 1.4-1.5 2.3-2l1 1.6c-.7.4-1.4.9-1.8 1.5-.6.7-.8 1.5-.6 2.4.2.8.7 1.6 1.5 2.2.9.7 1.7 1 2.4 1s1.4-.4 1.9-1.1c.3-.4.5-.8.7-1.2l-1.7-1.3-1.2 1.5z"/><path d="m284.9 239.4-3.1 5-8.6-5.4 3.1-5 1.5.9-2 3.1 1.9 1.2 1.8-2.9 1.5.9-1.8 2.9 2.2 1.4 2-3.1z"/><path d="m516.7 69.9c-.6-.5-1.3-.7-2-.5s-1.5.7-2.2 1.5c-1.5 1.7-1.6 3.2-.3 4.3.5.5 1.3.9 2.3 1.3l-1.2 1.4c-.9-.3-1.7-.7-2.5-1.4-1.1-1-1.7-2-1.7-3.2s.5-2.4 1.6-3.7c.7-.8 1.4-1.4 2.2-1.8s1.6-.5 2.5-.3c.8.1 1.6.5 2.4 1.2.8.6 1.4 1.5 1.8 2.5l-1.7.9c-.2-.4-.4-.8-.6-1.1-.1-.6-.3-.9-.6-1.1z"/><path d="m525.5 83.1c-1.2 1.2-2.4 1.8-3.7 1.8-1.2 0-2.4-.5-3.5-1.6s-1.6-2.3-1.6-3.5c.1-1.2.7-2.4 1.9-3.6s2.4-1.8 3.7-1.8c1.2 0 2.4.5 3.5 1.6s1.6 2.3 1.6 3.5-.7 2.4-1.9 3.6zm-5.2-5.3c-.8.8-1.3 1.6-1.4 2.3s.1 1.4.7 2c1.2 1.2 2.6 1 4.3-.6 1.6-1.6 1.9-3 .6-4.3-.6-.6-1.3-.9-2-.8-.6.2-1.4.6-2.2 1.4z"/><path d="m529.5 96-1.7-2.2 3.3-8.3c-1 .9-1.7 1.6-2.2 1.9l-3.8 3-1.2-1.5 8-6.3 1.7 2.1-3.2 8.2c1-.9 1.7-1.5 2.1-1.8l3.8-3 1.2 1.5z"/><path d="m532.7 100.5-1.2-1.8 8.4-5.7 3.3 4.8-1.5 1-2.1-3.1-2.2 1.5 1.9 2.9-1.5 1-1.9-2.9z"/><path d="m536.3 106.1 8.8-5.2 1.1 1.9-8.8 5.2z"/><path d="m546 111.8 1.8 3.6-4.7 2.4c-.5-.5-.9-1-1.2-1.5s-.6-1-.9-1.5c-.7-1.4-.8-2.6-.4-3.8.4-1.1 1.4-2.1 2.9-2.8s2.8-.9 4.1-.5c1.2.4 2.2 1.4 3 2.9.5.9.7 1.9.8 3l-1.9.1c0-.8-.2-1.6-.5-2.3-.4-.8-1-1.4-1.9-1.6-.8-.2-1.7-.1-2.6.4-1 .5-1.6 1.1-2 1.8-.3.7-.3 1.4.1 2.2.2.4.5.8.7 1.2l1.9-1-.9-1.7z"/><path d="m556.6 125-6.1 2.4c-.7.3-1.4.4-2 .3s-1.2-.4-1.7-.9-.9-1.1-1.2-1.9c-.5-1.2-.5-2.3-.2-3.2.4-.9 1.1-1.6 2.2-2l6.1-2.4.8 2-5.8 2.3c-.7.3-1.2.6-1.4 1.1-.2.4-.2 1 .1 1.7s.6 1.1 1.1 1.2c.5.2 1.1.1 1.8-.2l5.8-2.3z"/><path d="m552.5 132.9-3.8 1.1-.6-2.1 9.8-2.9.8 2.9c.4 1.3.4 2.4.1 3.2s-.9 1.3-1.9 1.6c-.6.2-1.1.2-1.7 0-.5-.2-1-.5-1.4-1-1.8 2.1-2.9 3.5-3.4 4.1l-.7-2.3 3.1-3.4zm1.7-.5.2.7c.2.7.4 1.1.8 1.4.3.2.7.3 1.2.2s.7-.4.8-.8.1-.9-.1-1.6l-.2-.6z"/><path d="m552.1 147.6-1.2-5.7 10-2.1 1.2 5.7-1.7.4-.8-3.6-2.2.5.7 3.4-1.7.4-.7-3.4-2.6.5.8 3.6z"/></g></svg>